<?xml version="1.0" encoding="UTF-8"?>
<svg id="Layer_2" data-name="Layer 2" xmlns="http://www.w3.org/2000/svg" viewBox="0 0 34 34">
  <defs>
    <style>
      .cls-1 {
        fill: #1a1a1a;
      }
    </style>
  </defs>
  <g id="Capa_1" data-name="Capa 1">
    <g>
      <path class="cls-1" d="m31.94,2.06c-1.33-1.33-3.1-2.06-4.98-2.06s-3.65.73-4.98,2.06l-4.27,4.27c-1.77,1.77-2.46,4.37-1.82,6.79.14.54.7.85,1.22.71.53-.14.85-.69.71-1.22-.46-1.74.04-3.6,1.3-4.86l4.27-4.27c.95-.95,2.22-1.48,3.56-1.48s2.61.52,3.56,1.48c.95.95,1.48,2.22,1.48,3.56s-.52,2.61-1.48,3.56l-4.27,4.27c-1.26,1.26-3.13,1.76-4.86,1.3-.53-.14-1.08.17-1.22.71-.14.53.18,1.08.71,1.22.6.16,1.2.24,1.81.24,1.85,0,3.65-.72,4.98-2.05l4.27-4.27c1.33-1.33,2.06-3.1,2.06-4.98s-.73-3.65-2.06-4.98Z"/>
      <path class="cls-1" d="m16.88,20.17c-.53.14-.85.69-.71,1.22.46,1.74-.04,3.6-1.3,4.86l-4.27,4.27c-.95.95-2.22,1.48-3.56,1.48s-2.61-.52-3.56-1.48c-.95-.95-1.48-2.22-1.48-3.56s.52-2.61,1.48-3.56l4.27-4.27c1.26-1.26,3.13-1.76,4.86-1.3.53.14,1.08-.17,1.22-.71.14-.53-.18-1.08-.71-1.22-2.42-.64-5.02.05-6.79,1.82l-4.27,4.27c-1.33,1.33-2.06,3.1-2.06,4.98s.73,3.65,2.06,4.98c1.33,1.33,3.1,2.06,4.98,2.06s3.65-.73,4.98-2.06l4.27-4.27c1.77-1.77,2.46-4.37,1.82-6.79-.14-.54-.7-.85-1.22-.71Z"/>
      <path class="cls-1" d="m9.89,24.11c.2.2.45.29.71.29s.51-.1.71-.29l12.81-12.81c.39-.39.39-1.02,0-1.41-.39-.39-1.02-.39-1.41,0l-12.81,12.81c-.39.39-.39,1.02,0,1.41Z"/>
    </g>
  </g>
</svg>