<?xml version="1.0" encoding="UTF-8"?>
<svg id="Layer_2" data-name="Layer 2" xmlns="http://www.w3.org/2000/svg" viewBox="0 0 132.14 28.9">
  <defs>
    <style>
      .cls-1 {
        fill: #232323;
      }
    </style>
  </defs>
  <g id="Capa_1" data-name="Capa 1">
    <path class="cls-1" d="m76.77,17.69c-.84-1.93-2.6-3.1-4.96-3.87,2.46-1.07,4.29-2.98,4.29-6.19v-.08c0-1.9-.67-3.37-1.79-4.48-1.63-1.63-4.09-2.5-7.58-2.5h-14.25v17.13c-.84-1.93-2.6-3.1-4.96-3.87,2.46-1.07,4.29-2.98,4.29-6.19v-.08c0-1.9-.68-3.37-1.79-4.48-1.63-1.63-4.09-2.5-7.58-2.5h-14.25v9.39C26.28,4.18,20.84,0,14.45,0,6.48,0,0,6.48,0,14.45s6.48,14.45,14.45,14.45c6.4,0,11.83-4.18,13.73-9.95v9.39h14.33c5.17,0,8.67-1.76,9.96-4.8v4.8h14.33c5.17,0,8.67-1.76,9.97-4.8v4.8h10.56c8.33,0,13.77-4.13,15.35-10.15,1.61,6.18,7.25,10.7,14.46,10.7,8.57,0,15-6.47,15-14.45v-.08c0-7.98-6.35-14.37-14.92-14.37m0,0c-7.15,0-12.81,4.51-14.49,10.63-1.51-6.04-6.91-10.08-15.24-10.08h-10.72v17.13m-53.84,2.27c-1.8,2.77-4.92,4.6-8.47,4.6-5.58,0-10.11-4.53-10.11-10.11S8.86,4.34,14.45,4.34c2.79,0,5.32,1.13,7.15,2.96l-2.77,2.77c-1.12-1.12-2.67-1.81-4.38-1.81-3.42,0-6.19,2.77-6.19,6.19s2.77,6.19,6.19,6.19c1.69,0,3.22-.68,4.34-1.77v-2.19h-4.3v-3.7h8.44v6.98Z"/>
  </g>
</svg>