<?xml version="1.0" encoding="UTF-8"?>
<svg id="Layer_2" data-name="Layer 2" xmlns="http://www.w3.org/2000/svg" viewBox="0 0 60 60">
  <defs>
    <style>
      .cls-1 {
        fill: #fff;
      }

      .cls-2 {
        fill: #232323;
      }
    </style>
  </defs>
  <g id="Capa_1" data-name="Capa 1">
    <g>
      <rect class="cls-2" x="0" width="60" height="60" rx="17.98" ry="17.98"/>
      <g>
        <path class="cls-1" d="m11.93,17.82c3.66,0,7.31,0,10.97,0,1.48,0,2.93.18,4.28.87,1.75.9,2.71,2.36,2.88,4.3.06.69.02,1.41-.09,2.1-.23,1.37-1.03,2.35-2.24,3.02-.11.06-.21.12-.32.18-.02.01-.04.03-.06.05.37.2.75.38,1.11.6,1.53.95,2.21,2.39,2.36,4.13.15,1.86-.34,3.53-1.52,4.99-1.07,1.32-2.49,2.04-4.15,2.27-.89.12-1.79.22-2.68.22-3.51.02-7.02,0-10.53,0v-22.75Zm4.61,18.81c.15,0,.28,0,.41,0,1.59,0,3.18,0,4.77,0,.51,0,1.02-.03,1.53-.07,1.42-.13,2.37-.9,2.62-2.21.1-.5.09-1.04.04-1.55-.07-.77-.5-1.35-1.18-1.73-.63-.35-1.33-.47-2.03-.48-1.98-.02-3.96-.01-5.93-.02-.07,0-.14.01-.22.02v6.04Zm0-9.86c.09,0,.15.02.21.02,1.86,0,3.72.02,5.58-.02.55-.01,1.11-.13,1.64-.28.59-.16,1.08-.49,1.33-1.09.23-.56.27-1.14.18-1.72-.14-.86-.62-1.44-1.49-1.63-.44-.1-.88-.21-1.33-.22-1.99-.04-3.98-.05-5.97-.07-.04,0-.09.02-.14.04v4.97Z"/>
        <path class="cls-1" d="m49.24,33.41h-12.37c-.05,2.07,1.08,3.67,3.09,4.06,1.2.23,2.39.19,3.42-.56.36-.26.61-.67.93-1,.1-.1.24-.22.36-.22,1.38-.02,2.77,0,4.15,0,.05,0,.09.01.16.03-.05.61-.29,1.14-.59,1.63-1.32,2.16-3.27,3.36-5.76,3.7-2.37.33-4.61,0-6.7-1.24-1.82-1.09-2.92-2.66-3.33-4.72-.46-2.36-.44-4.69.47-6.95.98-2.46,2.85-3.95,5.4-4.54,2.32-.53,4.59-.35,6.73.74,1.7.87,2.78,2.31,3.45,4.07.61,1.6.6,3.28.58,5.02Zm-12.28-2.93h7.62c-.02-1.93-1.28-3.32-3.33-3.52-2.37-.23-3.9,1.02-4.29,3.52Z"/>
        <path class="cls-1" d="m45.65,18.91v2.77h-9.85v-2.77h9.85Z"/>
      </g>
    </g>
  </g>
</svg>