<?xml version="1.0" encoding="UTF-8"?>
<svg id="Layer_2" data-name="Layer 2" xmlns="http://www.w3.org/2000/svg" viewBox="0 0 20.86 9.08">
  <defs>
    <style>
      .cls-1 {
        fill: #fff;
      }
    </style>
  </defs>
  <g id="Layer_1-2" data-name="Layer 1">
    <path class="cls-1" d="m20.59.1c-.28-.19-.66-.11-.85.18-1.92,2.92-5.48,4.74-9.31,4.74S3.04,3.2,1.13.28C.94,0,.56-.09.28.1,0,.29-.09.67.1.95c.47.72,1.04,1.37,1.67,1.97l-.86.99c-.22.26-.2.64.06.87.12.1.26.15.4.15.17,0,.34-.07.46-.21l.87-1c.56.42,1.15.79,1.78,1.11l-.96,1.97c-.15.3-.02.67.28.82.09.04.18.06.27.06.23,0,.45-.13.55-.34l.98-2.01c.74.29,1.52.52,2.32.68l-.31,2.39c-.04.34.19.64.53.69.03,0,.05,0,.08,0,.3,0,.57-.23.61-.53l.31-2.37c.43.04.86.07,1.29.07s.86-.03,1.29-.07l.31,2.37c.04.31.3.53.61.53.03,0,.05,0,.08,0,.34-.04.57-.35.53-.69l-.31-2.39c.8-.15,1.58-.38,2.32-.68l.98,2.01c.11.22.32.34.55.34.09,0,.18-.02.27-.06.3-.15.43-.52.28-.82l-.96-1.97c.63-.32,1.22-.7,1.78-1.11l.87,1c.12.14.29.21.46.21.14,0,.29-.05.4-.15.26-.22.28-.61.06-.87l-.86-.99c.63-.59,1.2-1.25,1.67-1.97.19-.28.11-.66-.18-.85Z"/>
  </g>
</svg>