<?xml version="1.0" encoding="UTF-8"?>
<svg id="Layer_2" data-name="Layer 2" xmlns="http://www.w3.org/2000/svg" viewBox="0 0 60 66.01">
  <defs>
    <style>
      .cls-1 {
        fill: #fff;
      }

      .cls-2 {
        fill: #232323;
      }
    </style>
  </defs>
  <g id="Capa_1" data-name="Capa 1">
    <g>
      <rect class="cls-2" x="0" width="60" height="60" rx="17.98" ry="17.98"/>
      <path class="cls-1" d="m46.65,38.89c.46-2.79.92-5.55,1.38-8.35h-9.64c0-2.19-.12-4.31.03-6.4.15-2.05,1.84-3.41,3.98-3.45,1.79-.03,3.59,0,5.44,0v-8.27s-.05-.06-.09-.06c-2.33.03-4.68-.12-6.99.14-5.93.66-10.48,5.65-10.74,11.63-.08,1.86-.03,3.73-.03,5.59,0,.24,0,.49,0,.8h-8.05v8.34h8.01v27.15c2.81,0,5.62.03,8.43,0v-27.11h8.27Z"/>
    </g>
  </g>
</svg>