<?xml version="1.0" encoding="UTF-8"?>
<svg id="Layer_2" data-name="Layer 2" xmlns="http://www.w3.org/2000/svg" viewBox="0 0 60 60">
  <defs>
    <style>
      .cls-1 {
        fill: #fff;
      }

      .cls-2 {
        fill: #232323;
      }
    </style>
  </defs>
  <g id="Capa_1" data-name="Capa 1">
    <g>
      <rect class="cls-2" width="60" height="60" rx="17.98" ry="17.98"/>
      <path class="cls-1" d="m14.32,30.42c-.03-8.47,6.88-15.4,15.39-15.42,8.5-.02,15.4,6.86,15.42,15.38.02,8.49-6.88,15.42-15.39,15.43-8.49.01-15.4-6.88-15.43-15.39Zm5.43-.04c-.01,5.52,4.42,9.98,9.94,10,5.55.02,10.02-4.41,10.03-9.96.01-5.52-4.41-9.97-9.94-10-5.54-.03-10.02,4.42-10.03,9.97Z"/>
      <path class="cls-1" d="m46.31,10.3c2.01.04,3.56,1.66,3.52,3.68-.04,2-1.67,3.55-3.69,3.52-1.98-.04-3.54-1.7-3.5-3.72.04-1.96,1.68-3.51,3.67-3.48Z"/>
    </g>
  </g>
</svg>