<?xml version="1.0" encoding="UTF-8"?>
<svg id="Layer_2" data-name="Layer 2" xmlns="http://www.w3.org/2000/svg" viewBox="0 0 77.5 112.69">
  <defs>
    <style>
      .cls-1 {
        fill: #e6e6e6;
      }

      .cls-2 {
        fill: #1a1a1a;
      }
    </style>
  </defs>
  <g id="Capa_1" data-name="Capa 1">
    <polygon class="cls-1" points="77.5 112.69 38.75 101.65 0 112.69 0 0 77.5 0 77.5 112.69"/>
    <g>
      <path class="cls-2" d="m33.64,62.15c-1.81.03-3.33.74-4.71,2.18,0-.37-.03-.52,0-.66.29-1.1.85-2.03,1.85-2.63.53-.32,1.1-.58,1.67-.85.36-.17.72-.23.73-.8.01-.58-.23-.79-.67-1.01-.67-.33-1.31-.74-1.98-1.09-1.08-.56-1.47-1.48-1.33-2.63.14-1.15.31-2.31.51-3.45.13-.74.11-1.39-.35-2.07-.67-.99-.38-2.83.52-3.94,0,1.19-.04,2.3.02,3.41.02.39.34.76.45,1.16.1.37.2.79.14,1.16-.21,1.34-.51,2.66-.74,4-.05.28.09.59.14.88.31-.12.63-.24.93-.38.25-.11.48-.33.72-.34.52,0,1.05.08,1.57.17.41.07.52.33.22.63-.22.22-.52.38-.8.53-.34.18-.39.41-.13.66.91.86,1.97,1.65,3.23,1.55.81-.07,1.59-.74,2.35-1.21.1-.06.05-.55-.07-.73-.3-.43-.74-.66-1.29-.45-.52.2-1.04.43-1.57.57-.54.14-1.1.16-1.59-.31.83.15,1.3-.38,1.88-.8.97-.71,2.04-1.28,3.05-1.94.94-.61,1.86-1.25,2.78-1.88,1.01-.69,1.35-1.69,1.24-2.87-.09-.88-.2-1.76-.31-2.63-.18-1.43-.05-1.72,1.31-2.14,1.85-.57,3.73-1.06,5.59-1.58,1.22-.34,2.27-.93,3-2,.73-1.07.78-2.16,0-3.18-.67-.88-1.48-1.65-2.29-2.53.58.19,1.16.33,1.7.56,3.16,1.35,4.87,3.72,5.01,7.18.04,1.03.4,1.94.95,2.78.61.94,1.28,1.84,1.89,2.78,1.8,2.76,1.59,4.9-.74,7.24-.51.51-1.09.95-1.68,1.47.66.06,1.28.06,1.88.2.59.13,1.15.4,1.73.61-.01.05-.03.11-.04.16-1.21.19-2.42.4-3.63.56-3.47.45-6.62,1.77-9.71,3.37-5.11,2.63-9.78,5.87-14.24,9.47-2.97,2.4-6.1,4.58-9.44,6.44-1.72.96-3.52,1.59-5.45,1.92-.66.11-1.32.4-1.9.74-.71.43-.77,1.52-.11,2.26.11-.31.22-.54.26-.78.2-1.28.54-1.56,1.83-1.73,1.32-.18,2.62-.47,3.93-.71.22-.04.43-.08.68-.03-.75.7-1.61,1.18-2.6,1.4-.59.13-1.19.21-1.77.38-.28.08-.51.34-.84.57,1.52.29,2.83.58,4.15.78,1.38.2,2.55-.21,3.57-1.23,2.7-2.7,5.78-4.84,9.51-5.89,1.57-.44,3.18-.78,4.76-1.21,2.56-.7,4.7-2.01,6.41-4.11,2.74-3.37,7.42-4.59,11.42-3.13.46.17.89.44,1.33.67-.02.07-.05.15-.07.22-1.17,0-2.35-.09-3.51.02-1.95.18-3.58,1.09-4.87,2.55-.76.85-1.39,1.81-2.15,2.66-.79.88-1.59,1.76-2.51,2.5-1.45,1.16-3.28,1.23-5.02,1.47-5.27.75-10.08,2.55-14.19,6.04-.62.53-1.59.83-2.42.9-1.32.12-2.66-.06-4-.06-1.24,0-2.49.08-3.73.07-.52,0-1.05-.11-1.55-.25-.58-.16-1.11-.48-1.69-.63-.46-.11-.69-.32-.83-.76-.52-1.6-.02-2.94,1.46-3.78.09-.05.17-.11.21-.29-.22.08-.45.16-.86.32.2-.32.28-.54.43-.69.82-.76,1.79-1.1,2.91-.96.51.06,1.03.13,1.52.28,1.32.4,2.54.19,3.75-.4,2.35-1.14,4.43-2.66,6.36-4.4,3.4-3.06,6.88-6.02,10.78-8.43.98-.61,1.98-1.19,2.95-1.84-2.1.59-4.22,1.14-5.77,2.88-.06-.06-.13-.11-.19-.17.45-.72.9-1.45,1.35-2.17-.02-.02-.04-.04-.06-.06-.47.54-1,1.03-1.38,1.62-.55.86-1.32,1.24-2.28,1.4-.78.13-1.56.32-2.33.51-.9.22-1.58.75-2.06,1.56-.07.12-.17.22-.39.29.03-.26.03-.53.09-.78.32-1.23,1.07-2.14,2.07-2.88,1-.74,2.01-1.49,3.01-2.23Zm12.75-15.28c.7,4.61.09,8.95-2.45,12.96,1.92-1.64,3.41-3.53,4.1-5.97.11-.37.2-.76.18-1.14-.13-2.1-.94-3.99-1.84-5.85Zm5.12,9.92c2.44-.69,4.21-5.09,2.83-7.61-1.08-1.98-2.71-3.36-4.57-4.55-.01,0-.05.04-.09.07.83,1.23,1.73,2.42,2.48,3.7,2.17,3.69,1.62,6.02-.61,8.27-.01.01-.01.04-.05.12Zm-7.57-5.45c-1.38,1.82-2.68,3.53-4.1,5.4.92-.47,1.7-.83,2.44-1.25,1.53-.87,2.15-1.49,1.66-4.15Zm10.18,5.89c.73-.08,1.28-.12,1.84-.2.15-.02.36-.1.43-.22,1.06-1.74,1.7-3.6,1.63-5.68-.48,2.49-1.88,4.4-3.9,6.1Zm-38.6,21.81c-1.07-.15-2.08.43-2.37,1.37-.13.42,0,.73.32.87.71-.78,1.36-1.49,2.04-2.24Z"/>
      <path class="cls-2" d="m39.28,43.56c0-.37-.06-.61,0-.81.25-.75.49-1.51.81-2.24.56-1.27.41-2.19-.59-3.16-1.14-1.11-2.58-1.61-4.09-1.93-3.14-.65-5.22.81-5.61,4.01-.25,2.1-.82,4.06-2.02,5.79-1.31,1.88-1.58,3.77-.53,5.87.86,1.74.89,3.62.4,5.49-.38,1.44-.53,2.84.69,4.15-.22-.04-.28-.03-.32-.06-1.6-1.5-2.77-3.22-2.56-5.53.14-1.57-.07-3.01-.87-4.4-1.1-1.9-.97-3.83.16-5.7.57-.94,1.1-1.91,1.75-2.79,1.19-1.64,2.05-3.43,2.68-5.34.02-.07.03-.15-.08-.31-1.12,1.44-2.27,2.86-3.36,4.33-.26.35-.39.81-.51,1.24-.39,1.38-1.07,2.59-2.15,3.54-.68.59-.83,1.29-.64,2.1.44,1.82.87,3.64,1.86,5.27.54.89.62,1.62.5,2.8-.71-.88-1.48-1.66-2.04-2.57-1.1-1.77-1.72-3.75-2.08-5.8-.17-.99,0-1.96.56-2.79,1.24-1.83,1.87-3.87,2.18-6.02.2-1.37.92-2.3,2.17-2.82,1.01-.42,2.03-.85,3.08-1.13,1.67-.45,3.17-1.19,4.55-2.24,1.46-1.11,3.44-.86,4.74.41.49.47,1.18.8,1.83,1.02,1.3.45,2.65.76,3.97,1.16,2.12.66,2.59,2.48.95,3.99-1.52,1.4-3.14,2.69-4.72,4.02-.17.14-.39.23-.72.42Z"/>
      <path class="cls-2" d="m38.24,32.07c1.73,0,3.46-.02,5.19,0,.23,0,.47.08.68.18,2.59,1.22,4.91,2.78,6.53,5.21,1,1.5.8,2.72-.75,3.65-.74.45-1.59.77-2.43.99-2.12.56-4.27,1.02-6.41,1.52-.21.05-.44.04-.66.05-.04-.06-.07-.12-.11-.17.2-.22.37-.49.61-.65,1.19-.82,2.39-1.61,3.59-2.42.57-.39,1.16-.75,1.68-1.2,1-.84,1.24-1.89.66-3.07-.82-1.68-2.26-2.48-4.07-2.68-1.01-.11-2.02-.14-3.02-.28-.6-.08-1.19-.27-1.57-.79.03-.11.05-.22.08-.33Z"/>
      <path class="cls-2" d="m37.78,42.5c-.04-.51-.09-1.01-.1-1.52-.02-.61-.32-1-.85-1.26-1.43-.71-2.65-.48-3.69.71-1.21,1.37-2.43,2.74-3.64,4.12-.14.15-.24.34-.36.51-.06-.04-.11-.09-.17-.13.15-.35.3-.69.44-1.05.67-1.74,1.38-3.47,1.99-5.24.73-2.1,2.14-2.9,4.26-2.18,1.05.35,2.08.82,3.07,1.34.85.45,1.04.9.76,1.83-.26.86-.67,1.67-1.04,2.48-.09.19-.3.32-.45.48-.07-.03-.14-.05-.21-.08Z"/>
      <path class="cls-2" d="m39.25,44.46c-1.13,3.29-3,6.15-4.77,9.07-.07-.03-.15-.06-.22-.08.06-.25.11-.51.17-.76.09-.42.21-.84.26-1.26.11-.96.1-.95-.83-.95-.25,0-.5-.11-.75-.17,0-.06,0-.12,0-.18.44-.18.93-.29,1.32-.54.37-.24.65-.62.97-.94-.06-.07-.12-.15-.18-.22-.4.25-.77.6-1.2.75-.98.34-1.16.95-.99,1.91.11.63-.05,1.3-.22,1.94-.37-.59-.88-1.13-1.06-1.77-.21-.74-.14-1.56-.15-2.34,0-.08.31-.27.42-.24,1.06.35,1.83-.22,2.61-.77.37-.26.68-.6,1.02-.89.2-.17.4-.43.61-.46,1.16-.12,1.72-1.04,2.47-1.72.15-.14.33-.25.5-.37Z"/>
    </g>
  </g>
</svg>