<?xml version="1.0" encoding="UTF-8"?>
<svg id="Layer_2" data-name="Layer 2" xmlns="http://www.w3.org/2000/svg" viewBox="0 0 60 60">
  <defs>
    <style>
      .cls-1 {
        fill: #fff;
      }

      .cls-2 {
        fill: #232323;
      }
    </style>
  </defs>
  <g id="Capa_1" data-name="Capa 1">
    <g>
      <rect class="cls-2" x="0" width="60" height="60" rx="17.98" ry="17.98"/>
      <g>
        <path class="cls-1" d="m31.51,27.18c.99-1.31,2.25-2.14,3.84-2.43,1.87-.35,3.73-.34,5.5.45,2.01.89,2.99,2.6,3.5,4.64.33,1.32.44,2.68.45,4.04.02,3.31.01,6.63.02,9.94,0,.8-.34,1.14-1.14,1.14-1.4,0-2.81,0-4.21,0-.8,0-1.13-.33-1.13-1.14,0-2.89,0-5.78,0-8.67,0-1.03-.02-2.06-.36-3.05-.39-1.12-1.13-1.86-2.33-2.03-1.34-.19-2.48.16-3.26,1.34-.64.96-.9,2.05-.9,3.2,0,3.02,0,6.03,0,9.05,0,1.05-.27,1.33-1.33,1.33-1.29,0-2.59,0-3.88,0-.77,0-1.11-.34-1.11-1.12,0-5.95,0-11.91,0-17.86,0-.79.32-1.11,1.1-1.12,1.37,0,2.74,0,4.12,0,.78,0,1.1.33,1.11,1.11,0,.41,0,.81,0,1.22Z"/>
        <path class="cls-1" d="m15.99,34.87c0-2.92,0-5.84,0-8.77,0-.9.34-1.26,1.23-1.26,1.29,0,2.59,0,3.88,0,.84,0,1.21.37,1.21,1.2,0,5.91,0,11.81,0,17.72,0,.82-.39,1.19-1.22,1.19-1.31,0-2.62,0-3.93,0-.8,0-1.18-.38-1.18-1.17,0-2.97,0-5.94,0-8.91Z"/>
        <path class="cls-1" d="m19.13,23.11c-2.24,0-4.06-1.84-4.06-4.09,0-2.26,1.85-4.1,4.11-4.09,2.24,0,4.06,1.85,4.05,4.09-.01,2.29-1.82,4.09-4.1,4.08Z"/>
      </g>
    </g>
  </g>
</svg>