<?xml version="1.0" encoding="UTF-8"?>
<svg id="Layer_2" data-name="Layer 2" xmlns="http://www.w3.org/2000/svg" viewBox="0 0 77.5 112.69">
  <defs>
    <style>
      .cls-1 {
        fill: #e6e6e6;
      }

      .cls-2 {
        fill: #1a1a1a;
      }
    </style>
  </defs>
  <g id="Capa_1" data-name="Capa 1">
    <polygon class="cls-1" points="77.5 112.69 38.75 101.65 0 112.69 0 0 77.5 0 77.5 112.69"/>
    <path class="cls-2" d="m11.33,77.14c1.27-7.31,2.54-14.55,3.81-21.86,1.67.15,3.29.29,4.91.43.15.01.31.02.46.03,1.54.2,3.25-.1,4.24,1.66.04-.05.08-.1.11-.15.9-5.29,1.8-10.58,2.71-15.92,1.21.03,2.38.06,3.56.09,1.63.04,3.27.07,4.9.15.28.01.61.19.81.4.5.51.94,1.08,1.5,1.74.49-2.99.96-5.86,1.44-8.77.21-.03.42-.08.63-.08,4.53-.02,9.06-.04,13.6-.04.25,0,.6.17.73.38,3.56,5.27,7.11,10.54,10.63,15.84.17.26.18.7.13,1.04-.82,5.66-1.66,11.33-2.52,16.99-.09.57.03.99.39,1.42.55.64,1.04,1.33,1.59,2.05-.18.13-.32.25-.48.36-5.73,3.85-11.45,7.71-17.19,11.55-.27.18-.69.29-1,.23-11.47-2.45-22.94-4.93-34.41-7.4-.17-.04-.34-.08-.54-.13Zm35.68,6.18c5.58-3.74,10.97-7.36,16.39-11-.47-.61-.93-1.14-1.3-1.72-.18-.28-.31-.68-.27-.99.83-5.82,1.7-11.63,2.53-17.45.04-.31-.04-.7-.21-.96-3.18-4.77-6.37-9.52-9.57-14.27-.09-.13-.2-.24-.36-.41-2.41,15.61-4.8,31.11-7.22,46.81Zm-10.72-40.34c-.8,4.92-1.58,9.69-2.37,14.5.77.07,1.43.13,2.08.19.05-.08.08-.12.08-.16.66-4.01,1.31-8.02,1.96-12.04.03-.17,0-.4-.11-.53-.5-.63-1.02-1.24-1.64-1.97Zm-12.17,18.68c.16-.96.32-1.89.47-2.83.01-.08,0-.19-.05-.24-.44-.42-.89-.84-1.41-1.32-.25,1.48-.47,2.8-.71,4.18.58.07,1.09.13,1.7.21Z"/>
  </g>
</svg>