<?xml version="1.0" encoding="UTF-8"?>
<svg id="Layer_2" data-name="Layer 2" xmlns="http://www.w3.org/2000/svg" viewBox="0 0 59.67 59.68">
  <defs>
    <style>
      .cls-1 {
        fill: #fff;
      }

      .cls-2 {
        fill: #232323;
      }
    </style>
  </defs>
  <g id="Capa_1" data-name="Capa 1">
    <g>
      <path class="cls-2" d="m31.7,59.68h-3.73c-.13-.03-.26-.09-.39-.1-4.03-.3-7.84-1.39-11.44-3.22-.21-.11-.53-.13-.76-.07-2.38.67-4.75,1.39-7.14,2.06-1.69.47-3.4.89-5.1,1.33h-1.05C1.03,59.35.33,58.65,0,57.59,0,57.24,0,56.89,0,56.54c.11-.24.21-.49.32-.73,1.4-3.08,2.79-6.17,4.21-9.25.18-.4.15-.68-.08-1.05-2.03-3.26-3.39-6.78-4.01-10.57C.27,33.86.15,32.79,0,31.72,0,30.47,0,29.23,0,27.99c.04-.21.08-.42.11-.62.14-1.02.22-2.05.42-3.05,1.59-7.99,5.72-14.36,12.4-18.99C19.51.75,26.85-.87,34.74.44c7.75,1.28,14.05,5.13,18.82,11.37,4.76,6.22,6.72,13.31,5.96,21.09-.57,5.91-2.79,11.19-6.56,15.77-4.7,5.7-10.69,9.24-17.97,10.55-1.08.19-2.18.31-3.27.46Z"/>
      <path class="cls-1" d="m13.15,21.8c0-2.77,1.14-4.97,3.32-6.65,1.62-1.25,3.34-1.19,4.82.23,1.96,1.88,2.96,4.26,3.1,6.94.04.75-.38,1.57-.75,2.28-.33.64-.88,1.16-1.34,1.73-.46.57-.51,1.14-.13,1.78,2.66,4.43,6.34,7.66,11.14,9.6.89.36,1.34.23,1.89-.55.46-.65.89-1.33,1.32-2,.82-1.28,1.96-1.68,3.44-1.38,1.84.38,3.52,1.07,4.99,2.24,2.08,1.66,2.42,3.5,1.09,5.8-1.71,2.95-4.4,3.91-7.63,3.67-3.84-.28-7.24-1.86-10.44-3.87-5.15-3.23-9.5-7.29-12.59-12.59-1.48-2.54-2.22-5.03-2.22-7.23Z"/>
    </g>
  </g>
</svg>