<?xml version="1.0" encoding="utf-8"?>
<!-- Generator: Adobe Illustrator 28.0.0, SVG Export Plug-In . SVG Version: 6.00 Build 0)  -->
<svg version="1.1" id="Layer_1" xmlns="http://www.w3.org/2000/svg" xmlns:xlink="http://www.w3.org/1999/xlink" x="0px" y="0px"
	 viewBox="0 0 1200 1200" style="enable-background:new 0 0 1200 1200;" xml:space="preserve">
<style type="text/css">
	.st0{fill:#FFFFFF;}
</style>
<g>
	<path class="st0" d="M580.15,15.72c36.9,122.82,73.8,245.63,110.94,369.24c78.86-69.63,157.2-138.8,235.55-207.96
		c0.23,0.13,0.46,0.26,0.69,0.39c-0.61,1.52-1.2,3.05-1.85,4.56C868.07,315.47,810.68,449,753.2,582.5
		c-1.21,2.81-1.25,5.24-0.39,8.09c15.39,51.02,30.68,102.06,46.1,153.07c0.83,2.75,2.21,5.5,3.92,7.8
		c67.86,91.4,135.8,182.75,203.71,274.11c2.62,3.53,5.19,7.09,8.48,11.6c-45.96-9.71-90.88-19.19-136.59-28.85
		c6.82,22.74,13.45,44.88,20.2,67.4c-8.03,2.78-15.85,5.51-23.69,8.19c-97.21,33.29-194.42,66.59-291.67,99.78
		c-2.09,0.71-4.83,0.81-6.9,0.12c-102.32-34.1-204.59-68.31-306.87-102.52c-1.26-0.42-2.5-0.91-4.13-1.5
		c0.55-2.1,1.04-4.13,1.62-6.13c17.95-60.87,35.88-121.75,53.95-182.58c1-3.37,0.4-4.83-2.73-6.47
		c-42.5-22.12-84.91-44.39-127.35-66.62c-7.47-3.91-7.74-6.22-1.31-11.46c40.99-33.43,81.97-66.88,123.02-100.24
		c2.33-1.89,3.22-3.77,3.22-6.76c-0.09-53.31-0.03-106.61-0.13-159.92c-0.01-3.35,1-5.77,3.15-8.25
		c53.36-61.6,106.64-123.27,160-184.87c2.89-3.33,4.84-6.88,6.08-11.11c30.96-105.23,62-210.43,93.03-315.63
		c0.4-1.35,0.83-2.69,1.25-4.04C579.5,15.72,579.82,15.72,580.15,15.72z M276.16,1074.15c99.81,33.37,199.07,66.56,298.72,99.87
		c0-132.44,0-264.21,0-396.33c-1.56,0.64-2.67,1.06-3.76,1.55c-78.47,35.47-156.93,70.98-235.45,106.35
		c-3.43,1.55-5.05,3.6-6.08,7.11c-14.59,49.82-29.33,99.59-44.02,149.37C282.47,1052.6,279.39,1063.14,276.16,1074.15z
		 M585.16,784.53c-0.27,0.13-0.54,0.25-0.81,0.38c0,129.47,0,258.94,0,389.1c101.33-34.7,202.23-69.26,303.23-103.84
		c-0.5-1.85-0.81-3.14-1.19-4.42c-5.6-18.63-11.28-37.24-16.74-55.91c-0.85-2.89-2.31-4.03-5.11-4.61
		c-42.14-8.84-84.27-17.72-126.36-26.78c-2.49-0.54-5.27-2.22-6.82-4.21C689.49,920.07,647.76,865.79,606,811.54
		C599.06,802.53,592.11,793.53,585.16,784.53z M334.53,876.36c3.69-1.65,6.58-2.93,9.47-4.23
		c75.93-34.32,151.85-68.66,227.81-102.91c2.58-1.16,3.57-2.51,3.53-5.38c-0.17-11.01-0.2-22.02,0.01-33.03
		c0.07-3.34-1.02-5.31-3.72-7.25c-80.95-58.28-161.84-116.65-242.74-175c-1.15-0.83-2.37-1.57-3.89-2.57c0,73.22,0,145.96,0,219.06
		c12.33-3.87,24.18-7.72,36.13-11.22c2.15-0.63,5.42-0.62,6.89,0.62c1.18,1,1,4.47,0.4,6.55c-8.64,29.77-17.45,59.49-26.21,89.22
		C339.71,858.66,337.25,867.1,334.53,876.36z M585.03,63.47c-0.21,0.04-0.43,0.09-0.64,0.13c0,200.92,0,401.83,0,603.85
		c1.03-1.81,1.58-2.66,2.01-3.57c36.11-76.17,72.22-152.35,108.21-228.57c0.81-1.72,0.89-4.2,0.37-6.05
		c-3.03-10.72-6.36-21.35-9.57-32.02c-33-109.92-66-219.85-99.01-329.77C586,66.12,585.49,64.8,585.03,63.47z M981.35,1008.18
		c0.17-0.2,0.34-0.39,0.52-0.59c-0.54-0.76-1.06-1.54-1.61-2.29c-81.19-109.24-162.39-218.48-243.52-327.76
		c-1.78-2.4-3.59-3.06-6.42-2.68c-8.37,1.14-16.78,2.07-25.17,3.05c-39.32,4.58-78.63,9.18-117.96,13.68
		c-2.45,0.28-3.14,1.21-3.11,3.52c0.1,7.25,0.22,14.5-0.04,21.75c-0.12,3.45,0.95,5.55,3.81,7.61
		c122.64,88.34,245.21,176.77,367.79,265.19C964.2,995.84,972.78,1002.01,981.35,1008.18z M575.09,63.75
		c-0.26-0.02-0.53-0.03-0.79-0.05c-0.62,2.03-1.27,4.06-1.87,6.1c-11.28,38.24-22.56,76.49-33.84,114.73
		c-22.75,77.13-45.51,154.25-68.18,231.4c-0.59,2.02-0.85,4.65-0.06,6.49c34.22,79.69,68.58,159.31,102.94,238.94
		c0.32,0.74,0.88,1.39,1.8,2.82C575.09,463.39,575.09,263.57,575.09,63.75z M476.16,364.32c-0.24-0.14-0.47-0.28-0.71-0.43
		c-49.52,57.27-99.03,114.55-148.77,172.08c82.91,59.8,165.33,119.25,248.59,179.31c0-7.38-0.17-13.65,0.06-19.91
		c0.17-4.68-0.85-8.9-2.71-13.2c-37.02-85.62-73.92-171.3-110.93-256.93c-1.42-3.28-1.67-6.21-0.61-9.66
		c4.78-15.66,9.33-31.39,13.96-47.09C475.45,367.11,475.79,365.71,476.16,364.32z M982.71,1021.2c0.14-0.25,0.27-0.5,0.41-0.75
		c-132.7-95.72-265.4-191.43-398.59-287.5c-0.22,1.42-0.4,2.04-0.4,2.66c-0.02,10.2-0.11,20.4,0.08,30.6
		c0.03,1.69,0.97,3.6,2.04,4.99c50.14,65.24,100.32,130.44,150.6,195.56c1.32,1.71,3.71,3.13,5.83,3.58
		c58.76,12.53,117.55,24.9,176.34,37.32C940.25,1012.15,961.48,1016.69,982.71,1021.2z M747.22,571.71c0.33,0,0.66,0.01,0.99,0.01
		c47.92-111.47,95.84-222.94,143.76-334.4c-0.25-0.13-0.5-0.26-0.74-0.4c-93.05,137.2-186.1,274.39-279.14,411.59
		c0.22,0.18,0.44,0.37,0.67,0.55c40.29-40.05,80.58-80.1,121.4-120.67C738.64,543.28,742.93,557.49,747.22,571.71z M611.23,632.32
		c0.24,0.17,0.48,0.33,0.73,0.5c93-137.12,186-274.24,278.99-411.36c-1.49,0.36-2.5,1.15-3.46,1.99
		c-18.62,16.43-37.25,32.86-55.86,49.3c-44.98,39.72-89.95,79.45-134.99,119.1c-2.15,1.89-2.58,3.47-1.72,6.17
		c3.23,10.1,6.06,20.32,9.3,30.42c1.06,3.32,0.8,6.09-0.69,9.22c-19.57,41.08-39.03,82.22-58.52,123.34
		C633.75,584.78,622.5,608.55,611.23,632.32z M729.82,544.77c-45.65,46.44-90.56,92.13-135.47,137.82c-0.26-0.82,0.5-0.75,1.24-0.84
		c45.98-5.35,91.95-10.66,137.91-16.15c3.78-0.45,5.97,0.7,8.11,3.6c12.72,17.3,25.58,34.5,38.4,51.73c0.9,1.22,1.87,2.39,2.8,3.58
		c0.29-0.16,0.58-0.31,0.88-0.47C765.86,664.74,748.04,605.42,729.82,544.77z M358.4,763.88c-52.74,16.57-104.56,32.85-157.3,49.41
		c41.73,21.86,82.46,43.21,123.61,64.78C335.94,840,347.04,802.38,358.4,763.88z M212.05,799.67c0.08,0.22,0.16,0.45,0.24,0.67
		c0.49-0.12,1-0.2,1.48-0.35c32.86-10.32,65.71-20.67,98.6-30.89c2.73-0.85,3.43-2.15,3.41-4.85c-0.12-14.89-0.05-29.78-0.07-44.68
		c0-1.15-0.16-2.29-0.3-4.18C280.59,743.78,246.32,771.72,212.05,799.67z"/>
</g>
</svg>
