<svg width="271" height="255" viewBox="0 0 271 255" fill="none" xmlns="http://www.w3.org/2000/svg">
<path d="M183.523 0.00484629H38.1006C20.6523 0.00484629 6.50399 14.1783 6.50399 31.6685V84.3232C6.50399 85.6373 6.59108 86.932 6.75076 88.2073L0.0298176 123.44C-0.192762 124.599 0.866912 125.593 2.004 125.302L38.5313 115.982H183.518C200.966 115.982 215.114 101.809 215.114 84.3184V31.6636C215.114 14.1783 200.971 0 183.518 0L183.523 0.00484629Z" fill="#0084A3"/>
<path d="M87.1748 129.074H232.597C250.045 129.074 264.193 143.248 264.193 160.738V213.393C264.193 214.707 264.106 216.001 263.947 217.277L270.668 252.509C270.89 253.668 269.831 254.662 268.693 254.371L232.166 245.051H87.1748C69.7265 245.051 55.5781 230.878 55.5781 213.388V160.733C55.5781 143.248 69.7216 129.069 87.1748 129.069V129.074Z" fill="#6AD6EF"/>
<path d="M112.598 75.6166C118.555 75.6166 123.383 70.7776 123.383 64.8083C123.383 58.839 118.555 54 112.598 54C106.641 54 101.812 58.839 101.812 64.8083C101.812 70.7776 106.641 75.6166 112.598 75.6166Z" fill="white"/>
<path d="M143.184 75.6166C149.141 75.6166 153.969 70.7776 153.969 64.8083C153.969 58.839 149.141 54 143.184 54C137.227 54 132.398 58.839 132.398 64.8083C132.398 70.7776 137.227 75.6166 143.184 75.6166Z" fill="white"/>
<path d="M81.7854 75.6166C87.7421 75.6166 92.5709 70.7776 92.5709 64.8083C92.5709 58.839 87.7421 54 81.7854 54C75.8288 54 71 58.839 71 64.8083C71 70.7776 75.8288 75.6166 81.7854 75.6166Z" fill="white"/>
<path d="M164.334 203.997C170.291 203.997 175.12 199.158 175.12 193.189C175.12 187.22 170.291 182.381 164.334 182.381C158.378 182.381 153.549 187.22 153.549 193.189C153.549 199.158 158.378 203.997 164.334 203.997Z" fill="white"/>
<path d="M194.924 203.997C200.881 203.997 205.71 199.158 205.71 193.189C205.71 187.22 200.881 182.381 194.924 182.381C188.967 182.381 184.139 187.22 184.139 193.189C184.139 199.158 188.967 203.997 194.924 203.997Z" fill="white"/>
<path d="M133.526 203.997C139.482 203.997 144.311 199.158 144.311 193.189C144.311 187.22 139.482 182.381 133.526 182.381C127.569 182.381 122.74 187.22 122.74 193.189C122.74 199.158 127.569 203.997 133.526 203.997Z" fill="white"/>
</svg>
