<svg width="274" height="285" viewBox="0 0 274 285" fill="none" xmlns="http://www.w3.org/2000/svg">
<path d="M273.104 157.775V264.635C273.104 275.413 264.34 284.177 253.562 284.177H153.825C143.047 284.177 134.283 275.413 134.283 264.635V157.775C134.283 156.161 135.595 154.844 137.215 154.844H270.172C271.792 154.844 273.104 156.156 273.104 157.775Z" fill="#0084A3"/>
<path d="M134.896 146.566L97.0377 19.1166C96.5754 17.5603 94.9443 16.6763 93.397 17.1434L54.5242 28.69C44.1929 31.7588 38.2858 42.6582 41.3571 52.985L69.7594 148.6C71.2453 153.602 74.5903 157.724 79.1772 160.209C83.7641 162.695 89.0501 163.246 94.0456 161.762L132.918 150.216C133.669 149.993 134.289 149.484 134.66 148.799C135.031 148.114 135.11 147.311 134.896 146.566Z" fill="#0084A3"/>
<path d="M215.853 70.6262C215.612 61.2015 212.665 50.8081 207.11 39.687C206.812 40.8555 206.443 42.0445 206.121 43.1822C205.726 44.2892 205.188 45.9702 204.716 47.0362L203.932 48.9273L203.056 50.7671C202.569 51.8126 201.944 52.8888 201.406 53.9087C200.047 56.2713 198.412 58.844 196.911 61.1246C194.758 64.4097 192.59 67.7153 190.725 71.1695C188.926 74.6442 188.086 78.5801 188.188 82.5007C187.706 78.5289 188.219 74.4341 189.726 70.7134C191.284 67.0747 193.175 63.4923 195.02 60.0074C196.28 57.6499 197.639 55.0003 198.751 52.566C198.869 52.2841 199.192 51.5256 199.32 51.2335C199.781 50.2136 200.304 48.712 200.698 47.6511C201.011 46.6262 201.549 45.0221 201.774 43.9817C202.056 42.9106 202.41 41.3321 202.589 40.2559C202.682 39.7383 202.861 38.8978 202.917 38.375C203.179 36.5915 203.368 34.7978 203.507 32.9938C199.437 25.9829 195.917 21.4935 195.748 21.2782L190.694 14.8721L190.515 23.0361C190.095 42.4442 185.672 49.9215 180.07 59.3821C178.364 62.2623 176.595 65.2502 174.822 68.771C169.979 78.3854 171.409 89.7576 178.973 101.653C184.473 110.303 191.243 116.182 191.535 116.428L193.031 117.714L194.789 116.822C195.025 116.705 200.555 113.829 205.88 106.619C208.965 102.447 211.379 97.6551 213.06 92.3662C215.135 85.8319 216.083 78.5238 215.878 70.6416" fill="#6AD6EF"/>
<path d="M224.985 148.971V128.276C224.985 126.657 223.673 125.345 222.053 125.345H165.806C164.187 125.345 162.875 126.657 162.875 128.276V148.971H224.985Z" fill="white"/>
<path d="M244.599 120.742C237.198 120.742 231.182 126.759 231.182 134.159C231.182 141.56 237.198 147.576 244.599 147.576C251.999 147.576 258.016 141.56 258.016 134.159C258.016 126.759 251.999 120.742 244.599 120.742ZM244.599 139.356C241.724 139.356 239.397 137.024 239.397 134.154C239.397 131.284 241.729 128.952 244.599 128.952C247.469 128.952 249.801 131.284 249.801 134.154C249.801 137.024 247.469 139.356 244.599 139.356Z" fill="white"/>
</svg>
