<svg width="244" height="291" viewBox="0 0 244 291" fill="none" xmlns="http://www.w3.org/2000/svg">
<path d="M44.1569 269.24C46.2859 268.061 59.9849 267.965 59.9849 267.965C59.9849 267.965 7.49599 247.874 5.90557 212.555L25.6003 224.333C25.6003 224.333 -6.31473 177.988 1.12416 128.833L16.5253 159.761C16.5253 159.761 3.24302 121.165 8.02444 81.3593L17.0537 109.956C17.0537 109.956 9.61486 60.049 12.2723 35.38C12.2723 35.38 23.4307 56.1314 30.8645 60.049C30.8645 60.049 23.5018 24.0542 25.5902 0C25.5902 0 48.1863 38.1797 59.9747 46.025C59.9747 46.025 57.739 23.2717 59.9747 6.21424C59.9747 6.21424 75.0506 41.8534 88.5514 50.3847C88.5514 50.3847 84.522 21.915 85.584 3.40945C85.584 3.40945 121.229 42.6207 121.483 55.7148H121.788C122.031 42.6207 157.686 3.40945 157.686 3.40945C158.748 21.915 154.719 50.3847 154.719 50.3847C168.22 41.8483 183.296 6.21424 183.296 6.21424C185.531 23.2666 183.296 46.025 183.296 46.025C195.089 38.1747 217.68 0 217.68 0C219.768 24.0542 212.406 60.049 212.406 60.049C219.845 56.1213 230.998 35.38 230.998 35.38C233.655 60.049 226.217 109.956 226.217 109.956L235.246 81.3593C240.027 121.17 226.745 159.761 226.745 159.761L242.146 128.833C249.585 177.993 217.67 224.333 217.67 224.333L237.365 212.555C235.774 247.884 183.285 267.965 183.285 267.965C183.285 267.965 196.989 268.061 199.113 269.24C201.237 270.419 121.63 290.205 121.63 290.205C121.63 290.205 42.0177 270.419 44.1467 269.24H44.1569Z" fill="#6AD6EF"/>
<path d="M62.6564 168.232C62.6107 168.08 62.6107 167.851 62.5142 167.79C61.7926 167.348 61.066 166.891 60.2987 166.545C58.9827 165.946 57.8191 165.133 56.6301 164.325C54.4503 162.836 52.3771 161.215 50.4361 159.432C48.7847 157.918 47.3417 156.21 45.9697 154.452C45.5074 153.858 45.1822 153.167 44.7807 152.521C44.6131 152.252 44.42 152.013 44.2472 151.754C44.0084 151.383 43.7747 151.002 43.5511 150.626C43.0582 149.778 42.5653 148.934 42.0877 148.08C41.9353 147.811 41.7625 147.537 41.666 147.247C41.3916 146.444 41.0054 145.682 40.6802 144.91C40.1009 143.512 39.6386 142.054 39.2676 140.586C38.5867 137.893 38.1548 135.154 38.0939 132.37C38.0431 129.91 38.2361 127.471 38.729 125.058C39.1355 123.081 39.5623 121.115 40.228 119.214C40.5989 118.168 41.0511 117.136 41.5745 116.161C42.2859 114.824 43.048 113.503 43.8661 112.233C44.3946 111.41 44.9942 110.612 45.67 109.911C47.0571 108.458 48.5002 107.055 49.9534 105.658C50.5022 105.135 51.1322 104.698 51.7318 104.235C51.869 104.128 52.0418 104.032 52.2145 104.012C52.367 103.996 52.555 104.062 52.6871 104.154C52.7684 104.21 52.804 104.413 52.7684 104.515C52.6668 104.804 52.4991 105.074 52.3771 105.363C51.9706 106.334 51.9808 107.375 51.8944 108.397C51.6048 111.969 52.6058 115.19 54.6739 118.107C55.6342 119.468 56.7063 120.713 58.0376 121.725C59.1961 122.609 60.4817 123.147 62.0009 123.432C62.0873 122.766 62.2042 122.151 62.2448 121.536C62.3668 119.931 62.4328 118.315 62.5853 116.72C62.7733 114.743 62.631 112.777 62.4329 110.825C62.316 109.596 62.0924 108.346 61.5284 107.203C61.2947 106.725 61.1981 106.181 60.9949 105.688C60.2937 103.946 59.4197 102.309 58.3628 100.739C57.3161 99.1744 56.1931 97.6805 54.9787 96.2476C54.2572 95.3991 53.4137 94.6572 52.5855 93.9052C50.3548 91.9033 47.9768 90.0944 45.3854 88.5598C43.7289 87.5843 42.0216 86.7052 40.2585 85.9634C38.7036 85.3028 37.0624 84.8404 35.4618 84.2866C35.1874 84.1901 34.9283 84.0427 34.6895 83.9309C34.725 83.4889 35.0096 83.4177 35.2585 83.3618C37.1843 82.9401 39.105 82.5387 41.0765 82.4523C41.8387 82.4167 42.5958 82.4523 43.358 82.498C44.0744 82.5336 44.7807 82.6505 45.4921 82.686C46.6557 82.7521 47.799 82.9401 48.9219 83.2653C49.1811 83.3364 49.4453 83.4381 49.7044 83.4533C51.0306 83.5244 52.2145 84.0986 53.4391 84.5102C54.8771 84.9929 56.2744 85.5874 57.6718 86.1971C58.7795 86.6747 59.8414 87.2438 60.9288 87.7621C61.9755 88.255 63.0324 88.7224 64.0893 89.2102C64.2926 89.3068 64.5161 89.3678 64.6991 89.4846C66.8383 90.8819 69.2417 91.7661 71.4927 92.9449C72.5648 93.5038 73.6217 94.0881 74.6735 94.6674C76.0048 95.3991 77.4173 95.9529 78.8045 96.5677C80.2425 97.2029 81.7414 97.6399 83.2048 98.1886C83.6266 98.3461 84.0432 98.4122 84.5005 98.4274C84.0077 97.899 83.3776 97.5941 82.7983 97.2334C81.1368 96.1867 79.4346 95.1908 77.7578 94.1745C76.0454 93.1329 74.2975 92.1217 72.6308 91.0141C71.5536 90.2976 70.5475 89.4643 69.5618 88.6259C67.4124 86.8018 65.4511 84.7846 63.5914 82.6708C61.254 80.0083 59.2165 77.1222 57.6464 73.9363C56.7114 72.0461 55.8578 70.1254 55.4411 68.0523C55.2988 67.3562 55.2582 66.6398 55.2379 65.9335C55.2328 65.6998 55.4055 65.4711 55.5478 65.1104C55.8578 65.3949 56.1271 65.5524 56.2948 65.7811C57.6413 67.6814 59.1605 69.4497 60.6189 71.2484C61.9806 72.9252 63.5151 74.419 65.2072 75.7554C66.8586 77.0561 68.5354 78.3213 70.4104 79.2918C72.641 80.4402 74.9326 81.4564 77.3614 82.056C79.0027 82.4625 80.6236 82.9554 82.3004 83.2348C84.5005 83.6057 86.6905 84.0427 88.8602 84.5356C92.0868 85.2673 95.3337 85.938 98.418 87.132C101.411 88.2905 104.444 89.4186 107.153 91.2122C107.676 91.5577 108.164 91.9439 108.687 92.2996C108.86 92.4215 109.058 92.5079 109.358 92.6807C109.373 92.1675 109.119 91.8982 108.926 91.639C108.154 90.5974 107.402 89.5354 106.568 88.5497C105.044 86.7408 103.499 84.9421 101.888 83.2043C98.4586 79.5053 94.5308 76.4159 90.1407 73.916C89.1194 73.3367 88.0523 72.9048 86.9598 72.5034C86.3806 72.2849 85.7861 72.0969 85.4202 71.5532C85.7454 71.1417 86.1418 71.1772 86.5584 71.223C87.1275 71.289 87.7068 71.3449 88.286 71.3602C89.5106 71.3957 90.659 71.7921 91.8327 72.0614C93.8855 72.5237 95.8824 73.1843 97.8387 73.9566C100.379 74.9525 102.823 76.1568 105.044 77.7777C105.842 78.3569 106.644 78.9158 107.422 79.5154C109.266 80.9178 110.704 82.6759 112.117 84.4695C113.499 86.2276 114.861 88.0009 116.233 89.7641C116.365 89.9368 116.507 90.1045 116.761 90.4246C116.761 90.0842 116.807 89.9114 116.761 89.7793C115.582 86.8831 114.368 83.997 112.854 81.2582C111.299 78.4382 109.597 75.7096 107.783 73.0522C107.051 71.9801 106.192 71.0045 105.379 69.9933C104.51 68.9161 103.621 67.844 102.752 66.7668C102.564 66.5331 102.422 66.2587 102.28 66.0453C102.483 65.6642 102.773 65.6896 103.011 65.7607C105.029 66.3603 106.924 67.1835 108.662 68.4283C110.882 70.0289 112.986 71.7413 114.906 73.7026C116.035 74.8611 117.025 76.1212 117.915 77.4626C119.515 79.8863 121.136 82.2897 122.767 84.7287C122.986 84.7947 123.021 84.5762 123.108 84.439C124.51 82.31 125.902 80.1709 127.32 78.0571C128.016 77.0206 128.753 76.0043 129.525 75.0237C130.806 73.4028 132.325 72.0055 133.925 70.7098C135.277 69.6122 136.659 68.5554 138.138 67.6204C139.52 66.7516 141.044 66.2587 142.564 65.7658C142.772 65.6998 143.041 65.8116 143.316 65.8471C143.26 66.3756 142.934 66.6347 142.685 66.9396C141.095 68.9314 139.408 70.8521 137.924 72.9252C136.436 74.9881 135.043 77.1273 133.824 79.3731C133.077 80.7501 132.289 82.1017 131.593 83.499C130.826 85.064 130.145 86.6697 129.439 88.2601C129.22 88.7529 129.032 89.2509 128.844 89.759C128.788 89.9114 128.788 90.0791 128.707 90.5262C129.068 90.0994 129.241 89.9114 129.403 89.7031C131.11 87.5182 132.818 85.3282 134.53 83.1484C136.121 81.1312 138.067 79.5154 140.16 78.0266C141.735 76.8986 143.437 76.0247 145.124 75.0948C145.709 74.7696 146.334 74.5156 146.964 74.2767C148.717 73.6111 150.46 72.8998 152.289 72.4628C153.331 72.2087 154.367 71.9191 155.409 71.6803C156.019 71.5431 156.638 71.411 157.263 71.3957C157.894 71.3805 158.508 71.3805 159.123 71.2281C159.519 71.1315 159.906 71.1722 160.2 71.6193C159.804 72.0258 159.342 72.29 158.834 72.4424C156.491 73.1538 154.443 74.4393 152.436 75.7909C150.953 76.7868 149.489 77.8386 148.133 78.987C146.085 80.7146 144.159 82.5895 142.411 84.6372C141.39 85.8262 140.328 86.9745 139.342 88.1889C138.331 89.4389 137.381 90.7447 136.41 92.0252C136.314 92.1471 136.288 92.3199 136.222 92.4723C136.613 92.64 136.786 92.386 136.974 92.2386C139.489 90.3281 142.34 89.0578 145.267 87.9044C146.679 87.3455 148.097 86.7967 149.55 86.3699C150.663 86.0447 151.786 85.7347 152.914 85.4451C153.773 85.2215 154.652 85.0386 155.526 84.8608C157.228 84.5 158.935 84.1596 160.632 83.8039C161.638 83.5956 162.629 83.3314 163.64 83.1535C166.283 82.681 168.833 81.8934 171.384 81.0702C171.638 80.9889 171.882 80.8771 172.131 80.7603C172.985 80.364 173.833 79.9575 174.677 79.5611C176.181 78.8599 177.522 77.8742 178.859 76.9139C180.754 75.5521 182.563 74.0786 184.077 72.3053C185.764 70.3287 187.461 68.3775 188.96 66.2485C189.234 65.8573 189.443 65.3949 189.895 65.2425C190.251 65.3136 190.327 65.5524 190.342 65.7658C190.378 66.2079 190.428 66.6703 190.347 67.0971C190.007 68.906 189.494 70.659 188.67 72.3154C188.172 73.3113 187.68 74.3123 187.182 75.3082C186.135 77.3966 184.743 79.2563 183.305 81.0906C181.923 82.8486 180.373 84.4543 178.777 86.0244C177.98 86.8069 177.207 87.6097 176.354 88.3312C175.058 89.4237 173.727 90.4653 172.309 91.4154C169.565 93.2701 166.664 94.8605 163.879 96.6389C162.98 97.208 162.04 97.711 161.135 98.2293C161.186 98.6002 161.405 98.4833 161.532 98.4376C163.147 97.9092 164.804 97.5281 166.328 96.7507C166.806 96.5118 167.339 96.395 167.827 96.1714C169.443 95.4042 171.1 94.708 172.639 93.8138C174.616 92.6705 176.669 91.7152 178.721 90.7397C179.006 90.6076 179.29 90.4704 179.555 90.2976C180.942 89.3881 182.471 88.7631 183.991 88.1127C185.012 87.6706 185.987 87.1219 186.983 86.629C187.268 86.4918 187.542 86.3394 187.837 86.2327C189.88 85.4451 191.917 84.6626 193.97 83.8954C194.427 83.7277 194.92 83.6616 195.403 83.5498C195.489 83.5295 195.586 83.5346 195.672 83.5143C197.776 82.8334 199.976 82.7521 202.156 82.5184C203.731 82.3456 205.291 82.5235 206.836 82.7267C208.03 82.8791 209.204 83.1738 210.382 83.4126C210.504 83.4431 210.621 83.5295 210.738 83.5956C210.88 83.6769 210.896 83.9665 210.753 84.0529C210.636 84.124 210.53 84.2053 210.408 84.246C208.889 84.7592 207.354 85.2368 205.845 85.7805C205.093 86.0548 204.381 86.4461 203.655 86.7764C201.739 87.6453 199.895 88.6513 198.187 89.8505C195.957 91.4205 193.797 93.0719 191.866 95.0231C190.667 96.2324 189.529 97.4925 188.538 98.8593C186.917 101.1 185.469 103.437 184.438 106.044C183.249 109.027 182.868 112.101 182.954 115.241C183.025 117.832 183.315 120.414 183.518 123.005C183.523 123.137 183.589 123.259 183.65 123.437C185.053 123.244 186.308 122.69 187.436 121.872C189.387 120.449 190.784 118.544 191.978 116.476C193.503 113.818 193.94 110.947 193.686 107.944C193.589 106.832 193.503 105.714 192.903 104.718C192.847 104.616 192.852 104.459 192.867 104.327C192.898 104.134 193.04 103.981 193.238 104.032C193.492 104.098 193.752 104.189 193.96 104.342C194.473 104.703 195.002 105.058 195.444 105.5C197.41 107.446 199.554 109.24 201.19 111.491C202.08 112.716 202.842 114.037 203.609 115.348C204.016 116.034 204.295 116.786 204.646 117.512C205.84 120.002 206.358 122.67 206.927 125.347C207.39 127.547 207.512 129.768 207.542 131.999C207.557 133.376 207.369 134.763 207.186 136.135C206.902 138.304 206.566 140.474 205.809 142.547C205.413 143.634 205.164 144.778 204.514 145.768C204.392 145.951 204.31 146.175 204.26 146.383C203.985 147.582 203.289 148.573 202.684 149.61C202.618 149.727 202.517 149.828 202.466 149.95C201.765 151.556 200.642 152.902 199.732 154.371C199.031 155.499 198.096 156.5 197.186 157.475C196.16 158.583 195.118 159.696 193.909 160.631C193.172 161.2 192.441 161.794 191.704 162.374C191.602 162.455 191.46 162.506 191.374 162.597C190.759 163.263 189.961 163.685 189.255 164.223C187.639 165.448 185.86 166.378 184.067 167.292C183.604 167.531 183.071 167.699 182.786 168.202C182.72 168.232 182.654 168.258 182.619 168.273C182.639 168.258 182.7 168.217 182.756 168.171C184.087 167.938 185.302 167.404 186.491 166.804C188.559 165.763 190.601 164.665 192.583 163.461C193.995 162.607 195.388 161.723 196.78 160.819C198.127 159.945 199.493 159.091 200.759 158.111C202.242 156.967 203.645 155.722 205.047 154.488C205.372 154.203 205.591 153.787 205.814 153.4C206.134 152.867 206.546 152.806 207.059 153.08C206.988 153.507 206.917 153.939 206.836 154.376C206.49 156.317 205.83 158.167 205.098 159.991C204.651 161.103 204.143 162.196 203.574 163.263C202.989 164.36 202.324 165.427 201.643 166.474C200.53 168.197 199.387 169.904 198.071 171.479C197.613 172.023 197.095 172.516 196.607 173.034C194.453 175.356 192.334 177.714 190.119 179.985C188.442 181.713 186.648 183.328 184.9 184.99C184.575 185.3 184.234 185.589 183.925 185.91C183.853 185.981 183.874 186.148 183.853 186.265C183.782 186.235 183.716 186.199 183.645 186.169V186.352C183.711 186.306 183.777 186.27 183.838 186.23C184.722 185.798 185.627 185.396 186.485 184.929C187.461 184.395 188.426 183.821 189.356 183.217C191.308 181.956 193.279 180.722 195.124 179.304C196.323 178.379 197.568 177.51 198.812 176.636C199.087 176.443 199.356 176.123 199.768 176.291C200.001 176.387 199.94 176.819 199.498 177.338C198.914 178.024 198.513 178.821 198.076 179.594C197.664 180.33 197.176 181.042 196.638 181.682C194.605 184.121 192.537 186.529 190.474 188.948C188.523 191.23 186.724 193.623 185.129 196.163C183.64 198.521 182.624 201.097 181.897 203.79C181.638 204.74 181.333 205.68 181.165 206.646C180.861 208.404 180.556 210.162 180.566 211.966C180.566 213.124 180.429 214.283 180.358 215.436C180.342 215.655 180.358 215.878 180.358 216.239C180.576 216.081 180.749 216.015 180.82 215.893C182.202 213.388 183.686 210.939 184.885 208.343C186.44 204.979 187.969 201.6 189.499 198.221C190.388 196.26 191.328 194.334 192.517 192.54C193.279 191.382 193.98 190.188 194.773 189.055C196.816 186.148 199.3 183.643 201.973 181.311C202.883 180.513 203.802 179.736 204.727 178.953C205.342 178.43 206.002 177.978 206.805 177.795C207.059 177.998 206.973 178.186 206.836 178.379C205.911 179.69 204.91 180.961 204.066 182.327C202.928 184.151 202.034 186.098 201.536 188.211C201.251 189.385 200.875 190.528 200.545 191.682C200.494 191.854 200.464 192.027 200.428 192.205C200.134 193.877 199.819 195.549 199.544 197.22C199.204 199.248 198.879 201.28 198.558 203.312C198.228 205.477 197.999 207.662 197.568 209.801C197.212 211.544 196.998 213.322 196.409 215.025C195.86 216.63 195.312 218.231 194.615 219.786C193.543 222.158 192.197 224.374 190.815 226.559C189.641 228.413 188.157 230.044 186.516 231.508C184.814 233.027 183.218 234.668 181.359 235.994C179.839 237.082 178.366 238.225 176.745 239.19C174.667 240.425 172.517 241.518 170.398 242.656C169.031 243.388 167.548 243.916 166.095 244.485C164.809 244.993 163.503 245.44 162.202 245.898C160.073 246.645 157.675 247.371 155.388 247.813C155.063 247.879 154.819 247.798 154.514 247.696C153.752 247.458 152.949 247.366 152.162 247.224C151.501 247.107 150.836 247.015 150.18 246.899C149.962 246.853 149.738 246.792 149.55 246.675C148.305 245.908 147.025 245.191 146.064 244.018C145.5 243.332 144.906 242.666 144.327 241.985C142.909 240.324 141.491 238.637 139.616 237.443C139.398 237.305 139.24 237.072 139.047 236.884C138.89 236.731 138.737 236.564 138.549 236.457C136.888 235.42 135.241 234.353 133.534 233.383C132.645 232.875 131.654 232.565 130.704 232.158C128.727 231.31 126.629 230.878 124.546 230.405C123.433 230.151 122.33 230.136 121.222 230.405C119.835 230.746 118.428 231.025 117.046 231.401C116.278 231.609 115.557 231.965 114.81 232.26C114.266 232.478 113.723 232.687 113.189 232.91C112.864 233.047 112.523 233.185 112.219 233.367C110.547 234.389 108.875 235.42 107.214 236.452C107.142 236.497 107.031 236.518 106.98 236.584C106.233 237.626 104.988 238.083 104.165 239.038C103.347 239.988 102.402 240.816 101.619 241.787C100.974 242.59 100.288 243.342 99.6222 244.129C96.1873 248.179 89.6326 248.448 85.09 246.36C84.4446 246.065 83.7536 245.882 83.0778 245.649C81.5585 245.125 80.0189 244.658 78.525 244.063C77.2903 243.57 76.1013 242.94 74.9021 242.356C73.9824 241.899 73.0729 241.416 72.1684 240.933C71.3097 240.471 70.4662 239.942 69.5923 239.511C67.9002 238.672 66.4521 237.463 64.9125 236.406C63.9572 235.745 63.068 234.988 62.2042 234.206C60.6849 232.824 59.1707 231.426 57.7276 229.958C56.4116 228.622 55.248 227.143 54.3283 225.487C53.6119 224.201 52.7735 222.982 52.0773 221.681C51.4473 220.502 50.8884 219.272 50.4006 218.028C49.8772 216.696 49.4605 215.329 49.0337 213.963C48.9016 213.541 48.8813 213.089 48.7949 212.647C48.5866 211.64 48.3223 210.645 48.1648 209.639C47.9565 208.363 47.8396 207.073 47.6516 205.792C47.428 204.242 47.174 202.698 46.9148 201.153C46.6201 199.39 46.3051 197.632 46.0053 195.874C45.7868 194.598 45.6141 193.313 45.3397 192.048C45.1009 190.96 44.7452 189.898 44.4352 188.826C44.2269 188.094 44.0389 187.358 43.7899 186.641C42.7635 183.74 41.1578 181.179 39.2676 178.771C39.0644 178.511 38.6985 178.308 38.8357 177.78C39.4709 177.836 39.9993 178.135 40.4871 178.516C41.2239 179.101 41.9708 179.675 42.667 180.305C44.3183 181.809 46.0002 183.293 47.5602 184.893C49.1252 186.494 50.5428 188.227 51.7725 190.112C53.7389 193.104 55.4563 196.234 56.8537 199.547C57.8598 201.936 59.0589 204.237 60.0955 206.615C61.4471 209.74 63.1645 212.672 64.8109 215.644C64.8972 215.797 65.0141 215.929 65.1005 216.051C65.3901 216.02 65.4104 215.843 65.3952 215.66C65.3139 214.547 65.4765 213.419 65.1869 212.316C65.3546 210.828 64.9125 209.384 64.8261 207.916C64.7956 207.433 64.6838 206.946 64.567 206.468C64.0385 204.288 63.4237 202.149 62.6412 200.045C62.4887 199.624 62.2804 199.227 62.0822 198.831C60.9745 196.626 59.6382 194.578 58.1697 192.596C55.37 188.811 52.1231 185.412 49.176 181.758C48.7288 181.199 48.2868 180.63 47.926 180.021C47.3315 179.025 46.8386 177.973 46.0714 177.084C45.9647 176.952 45.8986 176.774 45.8478 176.601C45.8275 176.535 45.8478 176.398 45.9037 176.362C46.0053 176.296 46.1577 176.225 46.2594 176.255C46.4677 176.321 46.6659 176.438 46.8437 176.565C47.7939 177.231 48.7542 177.892 49.679 178.583C51.5743 180 53.4544 181.438 55.5173 182.617C56.4421 183.145 57.3212 183.775 58.2256 184.34C59.2876 185 60.38 185.584 61.6046 185.904C61.6351 186.194 61.7977 186.316 62.0873 186.296C61.9603 186.113 61.7926 185.991 61.5741 185.935C61.5945 185.559 61.2794 185.401 61.0609 185.203C57.748 182.266 54.6891 179.07 51.6353 175.869C50.68 174.873 49.8314 173.766 48.866 172.775C46.7268 170.59 45.1059 168.029 43.4698 165.468C42.5501 164.03 41.854 162.496 41.1274 160.961C39.9333 158.482 39.1508 155.905 38.7087 153.207C39.3286 152.867 39.5318 152.862 39.8062 153.263C41.3103 155.499 43.5409 156.932 45.609 158.537C46.7472 159.411 47.9311 160.199 49.1455 160.946C51.808 162.582 54.4757 164.208 57.1738 165.788C58.251 166.418 59.4044 166.926 60.5376 167.445C61.2591 167.775 62.0264 168.024 62.7784 168.303C62.8292 168.288 62.8648 168.283 62.9105 168.268C62.941 168.263 62.9664 168.253 63.007 168.248L62.7631 168.314L62.7123 168.268L62.6564 168.232ZM59.6331 161.083C59.6992 161.149 59.7703 161.215 59.8364 161.286C59.7551 161.23 59.6788 161.169 59.6026 161.119C59.2927 160.809 58.9827 160.489 58.6677 160.184C58.0681 159.589 57.4075 159.035 56.8639 158.39C55.7409 157.059 54.6586 155.682 53.5916 154.305C53.1596 153.741 52.7836 153.126 52.4127 152.511C52.3162 152.369 52.0926 152.171 52.3416 151.952C52.3975 151.967 52.4483 151.957 52.4839 151.983C52.6719 152.105 52.8649 152.216 53.0428 152.359C55.2124 154.163 57.7886 154.986 60.502 155.499C61.1168 155.616 61.7367 155.702 62.3566 155.773C62.5599 155.794 62.8139 155.804 62.9156 155.443C62.6971 155.275 62.4735 155.072 62.2194 154.909C60.4258 153.72 58.6372 152.537 57.1027 151.017C56.2439 150.169 55.4259 149.274 54.5214 148.477C53.1596 147.283 52.1688 145.784 51.0408 144.402C50.6495 143.919 50.2938 143.396 49.9788 142.862C48.5561 140.484 47.1994 138.065 46.3305 135.408C45.7106 133.498 45.1415 131.567 44.8112 129.575C44.5165 127.796 44.5064 126.013 44.481 124.219C44.4657 123.35 44.4657 123.284 44.1049 122.426C44.0033 122.619 43.8864 122.766 43.861 122.924C43.6426 124.25 43.3478 125.571 43.2665 126.902C43.0938 129.671 43.1243 132.446 43.4393 135.21C44.1608 141.505 46.2441 147.293 49.7603 152.567C52.118 156.098 55.1515 158.883 58.8963 160.88C59.1199 160.997 59.3943 161.017 59.6433 161.083H59.628H59.6331ZM84.6276 217.001C84.8105 217.021 84.9578 217.057 85.1204 217.057C87.3562 217.057 89.5919 216.986 91.8073 216.63C93.1233 216.422 94.4648 216.285 95.7198 215.777C96.6751 215.395 97.5999 214.918 98.5856 214.669C100.207 214.257 101.518 213.129 103.149 212.774C103.271 212.743 103.382 212.641 103.504 212.591C103.911 212.408 104.307 212.22 104.719 212.062C105.217 211.869 105.74 211.722 106.223 211.493C106.446 211.392 106.685 211.183 106.782 210.965C107.544 209.202 108.281 207.428 109.002 205.645C109.434 204.568 109.82 203.475 110.252 202.398C110.577 201.595 111.223 201.377 111.99 201.798C112.259 201.941 112.488 202.174 112.686 202.408C112.879 202.647 113.026 202.936 113.164 203.211C114.063 205.015 114.856 206.849 115.45 208.78C115.633 209.364 115.77 209.974 116.065 210.421C120.638 210.645 125.115 210.68 129.571 210.406C129.845 209.583 130.104 208.82 130.353 208.053C130.816 206.554 131.446 205.132 132.157 203.734C132.381 203.292 132.579 202.835 132.853 202.439C133.046 202.154 133.336 201.905 133.641 201.742C134.352 201.372 134.972 201.61 135.292 202.337C135.526 202.865 135.714 203.414 135.927 203.958C136.847 206.239 137.772 208.516 138.692 210.787C138.829 211.132 139.047 211.386 139.413 211.524C140.501 211.915 141.629 212.21 142.624 212.84C142.767 212.936 142.97 212.921 143.138 212.977C143.432 213.078 143.737 213.165 144.007 213.322C145.866 214.415 147.929 215.035 149.931 215.782C151.283 216.28 152.711 216.442 154.113 216.656C156.242 216.981 158.386 217.016 160.531 217.047C160.698 217.047 160.902 217.118 161.003 216.823C160.231 216.208 159.428 215.578 158.646 214.933C157.995 214.4 157.279 213.897 156.735 213.261C155.475 211.762 154.072 210.38 152.995 208.719C152.467 207.911 151.715 207.245 151.39 206.28C151.293 205.995 151.044 205.757 150.866 205.497C150.592 205.091 150.287 204.7 150.063 204.273C149.433 203.079 148.646 202.002 147.772 200.98C147.619 200.808 147.584 200.457 147.223 200.533C146.695 201.768 146.197 203.008 145.633 204.217C145.089 205.391 144.489 206.539 143.89 207.687C143.686 208.079 143.463 208.485 143.178 208.815C142.736 209.329 142.086 209.237 141.745 208.627C141.639 208.439 141.573 208.216 141.512 208.007C141.186 206.758 140.81 205.513 140.572 204.237C140.109 201.819 139.312 199.491 138.712 197.113C138.473 196.163 138.128 195.249 137.975 194.268C137.889 193.699 137.65 193.155 137.503 192.591C137.396 192.159 137.142 191.88 136.73 191.743C134.733 191.108 132.782 190.305 130.689 190C129.632 189.847 128.555 189.812 127.493 189.726C124.454 189.466 121.416 189.482 118.377 189.68C117.264 189.751 116.141 189.781 115.044 189.949C112.915 190.274 110.908 191.062 108.87 191.722C108.392 191.875 108.133 192.2 108.016 192.662C107.808 193.531 107.625 194.405 107.386 195.269C106.909 196.992 106.375 198.699 105.923 200.426C105.389 202.505 104.932 204.593 104.419 206.671C104.261 207.322 104.089 207.982 103.824 208.587C103.53 209.268 102.778 209.349 102.305 208.76C102 208.378 101.782 207.926 101.558 207.494C101.152 206.697 100.771 205.894 100.379 205.086C99.9728 204.237 99.5714 203.394 99.17 202.545C99.0175 202.22 98.8956 201.88 98.7228 201.575C98.5298 201.234 98.672 200.752 98.2605 200.518C98.1741 200.569 98.0775 200.589 98.0267 200.65C96.4261 202.357 95.4861 204.527 94.0888 206.382C93.9871 206.519 93.9668 206.712 93.8957 206.874C93.7992 207.078 93.728 207.301 93.601 207.469C92.8337 208.455 92.0665 209.435 91.2738 210.401C90.5624 211.259 89.8053 212.077 89.0838 212.931C88.4486 213.683 87.7474 214.354 86.9344 214.928C86.1672 215.472 85.4609 216.087 84.7292 216.681C84.6784 216.727 84.6733 216.823 84.6123 216.976L84.6326 216.991L84.6276 217.001ZM160.2 143.858C161.496 143.965 162.66 143.675 163.803 143.294C165.119 142.852 166.313 142.166 167.538 141.531C167.731 141.429 167.909 141.277 168.051 141.109C168.813 140.235 169.86 139.636 170.373 138.543C170.424 138.426 170.581 138.37 170.657 138.259C170.962 137.816 171.323 137.405 171.526 136.922C171.918 135.972 172.223 134.991 172.548 134.016C172.837 133.162 172.99 132.288 172.969 131.384C172.919 129.077 172.456 126.877 171.415 124.783C170.866 123.686 170.088 122.786 169.265 121.897C168.244 120.784 167.014 119.997 165.719 119.291C162.954 117.792 159.987 117.736 156.974 118.193C156.842 118.213 156.72 118.274 156.598 118.325C156.054 118.534 155.51 118.737 154.977 118.971C153.829 119.468 152.675 119.982 151.766 120.871C150.744 121.862 149.596 122.746 149.032 124.118C148.966 124.275 148.849 124.438 148.727 124.56C148.005 125.246 147.792 126.165 147.548 127.075C147.467 127.38 147.452 127.695 147.36 127.995C146.913 129.433 146.883 130.926 147.071 132.38C147.325 134.371 147.731 136.358 149.062 137.994C149.57 138.614 149.962 139.361 150.546 139.89C151.639 140.86 152.594 142.039 154.118 142.42C154.408 142.491 154.652 142.73 154.926 142.882C155.165 143.015 155.399 143.172 155.648 143.223C157.167 143.553 158.671 144.046 160.2 143.883V143.863V143.858ZM98.545 130.957C98.6263 129.783 98.4078 128.655 98.1232 127.512C97.8387 126.369 97.5999 125.246 96.7361 124.377C96.6395 124.28 96.5786 124.158 96.5176 124.036C95.7503 122.4 94.3682 121.328 93.0217 120.226C92.7829 120.032 92.5238 119.829 92.2392 119.712C90.6132 119.016 89.0635 118.056 87.1987 118.076C87.1123 118.076 87.0259 118.041 86.9395 118.025C85.1865 117.782 83.4691 117.944 81.7821 118.483C80.1815 118.981 78.7283 119.778 77.4478 120.835C76.2741 121.796 75.2121 122.888 74.4448 124.23C73.3524 126.13 72.8697 128.208 72.6664 130.357C72.5953 131.145 72.6207 131.978 72.768 132.761C72.956 133.767 73.2812 134.753 73.5912 135.728C73.9164 136.749 74.2721 137.771 75.1613 138.482C75.3289 138.614 75.4306 138.838 75.5424 139.026C76.1623 140.037 77.2039 140.626 77.9813 141.495C79.3279 142.176 80.6287 142.959 82.0971 143.385C82.8695 143.609 83.6215 143.863 84.4396 143.878C86.0046 143.909 87.534 143.761 89.0787 143.416C90.4252 143.111 91.472 142.227 92.7626 141.846C92.9658 141.79 93.1335 141.602 93.2961 141.45C94.3327 140.53 95.415 139.661 96.167 138.467C96.7158 137.598 97.3966 136.775 97.7218 135.825C98.2503 134.27 98.7076 132.654 98.545 130.972H98.5399L98.545 130.957ZM90.4862 223.063C90.5878 223.271 90.6386 223.546 90.7758 223.607C91.1823 223.774 91.6244 223.876 92.0563 223.978C93.7636 224.374 95.4912 224.511 97.2442 224.608C99.0379 224.704 100.816 224.745 102.6 224.562C103.672 224.455 104.734 224.343 105.796 224.206C108.814 223.825 111.792 223.287 114.708 222.352C116.756 221.701 118.87 221.305 121.045 221.315C122.295 221.32 123.55 221.315 124.805 221.315C126.974 221.33 129.058 221.828 131.136 222.392C132.467 222.753 133.793 223.2 135.15 223.434C137.66 223.866 140.191 224.181 142.716 224.521C144.23 224.724 145.749 224.745 147.269 224.658C147.985 224.613 148.691 224.521 149.408 224.526C151.034 224.547 152.599 224.12 154.174 223.81C154.393 223.764 154.621 223.713 154.804 223.602C154.926 223.52 155.073 223.317 155.048 223.195C155.033 223.078 154.814 222.905 154.687 222.9C152.147 222.814 149.753 222.103 147.411 221.188C146.745 220.929 146.059 220.715 145.394 220.466C143.971 219.933 142.558 219.379 141.131 218.851C139.373 218.2 137.635 217.469 135.841 216.95C133.351 216.229 130.806 215.726 128.24 215.36C127.401 215.238 126.553 215.136 125.709 215.101C124.413 215.045 123.118 215.045 121.822 215.045C120.923 215.045 120.028 215.045 119.139 215.131C116.471 215.416 113.834 215.954 111.218 216.544C110.521 216.696 109.841 216.92 109.17 217.159C107.229 217.839 105.283 218.485 103.382 219.272C101.523 220.04 99.5917 220.624 97.7269 221.361C95.542 222.219 93.3063 222.794 90.9638 222.91C90.8419 222.91 90.7199 222.992 90.5014 223.063H90.4862ZM96.9901 153.126C96.6192 152.857 96.4922 152.75 96.355 152.664C94.292 151.383 92.0817 150.433 89.8155 149.59C87.971 148.893 86.0808 148.375 84.1194 148.136C83.0117 147.999 81.8888 147.953 80.7862 147.826C78.2303 147.521 75.6948 147.72 73.1593 148.014C71.1166 148.253 69.1248 148.777 67.1381 149.31C66.5537 149.468 65.9135 149.595 65.4257 150.011C65.6188 150.382 65.9541 150.331 66.259 150.342C69.5008 150.499 72.6258 151.18 75.71 152.181C78.3726 153.05 80.7658 154.447 83.1845 155.799C83.3369 155.885 83.5046 155.987 83.6063 156.124C83.7028 156.256 83.7892 156.485 83.7384 156.607C83.6571 156.79 83.464 156.998 83.2912 157.028C82.9965 157.084 82.6713 157.033 82.3563 156.998C80.2171 156.723 78.0728 156.673 75.9336 156.998C74.5668 157.206 73.1999 157.455 71.8382 157.709C71.5994 157.755 71.3758 157.897 71.0506 158.034C71.3046 158.177 71.4418 158.319 71.6095 158.344C73.7233 158.751 75.7863 159.32 77.8035 160.052C79.7801 160.763 81.7669 161.418 83.591 162.506C84.5514 163.075 85.5371 163.598 86.5229 164.127C88.5706 165.224 90.6234 166.306 92.5797 167.572C93.1081 167.912 93.667 168.202 94.2006 168.527C95.0034 169.01 95.8011 169.513 96.5887 170.011C97.4779 170.575 98.3468 171.184 99.4037 171.753C99.3377 171.073 99.3072 170.539 99.231 170.016C98.855 167.521 98.1233 165.133 97.0257 162.867C96.0298 160.804 94.8103 158.893 93.1792 157.252C92.102 156.165 90.913 155.225 89.7139 154.295C89.47 154.107 89.221 153.903 89.0279 153.665C88.7942 153.38 88.9974 152.867 89.3683 152.826C89.8511 152.775 90.3541 152.745 90.8368 152.775C92.7981 152.877 94.7595 152.999 97.0155 153.136L96.9901 153.126ZM174.509 158.06C173.94 157.567 173.274 157.653 172.67 157.511C169.509 156.749 166.308 156.541 163.076 157.003C162.817 157.038 162.543 157.049 162.273 157.018C161.903 156.972 161.704 156.459 161.943 156.185C162.085 156.017 162.263 155.875 162.451 155.758C165.912 153.644 169.555 151.998 173.533 151.129C175.459 150.707 177.395 150.418 179.372 150.326C179.656 150.311 179.992 150.362 180.139 149.905C179.849 149.783 179.57 149.645 179.28 149.559C178.462 149.32 177.644 149.086 176.826 148.878C173.432 148.009 169.987 147.562 166.471 147.715C165.581 147.75 164.692 147.847 163.793 147.872C161.45 147.943 159.164 148.416 156.964 149.147C154.723 149.894 152.512 150.768 150.444 151.952C149.901 152.262 149.382 152.603 148.859 152.938C148.839 152.953 148.854 153.019 148.839 153.131C148.996 153.131 149.159 153.136 149.311 153.131C151.141 153.009 152.97 152.872 154.804 152.76C155.246 152.73 155.704 152.76 156.14 152.791C156.379 152.806 156.598 152.928 156.618 153.172C156.633 153.375 156.572 153.604 156.476 153.792C156.395 153.934 156.222 154.036 156.08 154.147C155.617 154.503 155.145 154.843 154.692 155.204C152.711 156.774 150.983 158.578 149.692 160.763C148.392 162.968 147.411 165.321 146.806 167.816C146.501 169.066 146.212 170.321 146.293 171.728C146.512 171.606 146.664 171.525 146.801 171.433C148.188 170.534 149.565 169.624 150.968 168.74C151.73 168.263 152.523 167.851 153.295 167.409C154.763 166.561 156.227 165.697 157.7 164.853C158.473 164.411 159.301 164.056 160.068 163.608C162.152 162.384 164.27 161.271 166.572 160.473C168.94 159.655 171.313 158.873 173.762 158.375C174.006 158.324 174.235 158.182 174.499 158.065L174.514 158.05L174.509 158.06ZM130.165 175.28C130.384 175.244 130.47 175.244 130.557 175.224C130.724 175.168 130.897 175.107 131.055 175.031C133.072 173.954 134.967 172.724 136.552 171.032C137.538 169.985 138.382 168.842 139.098 167.597C140.191 165.717 140.907 163.72 141.065 161.54C141.146 160.402 140.978 159.31 140.531 158.263C140.003 157.033 139.057 156.591 137.818 157.074C137.289 157.282 136.756 157.582 136.334 157.958C134.606 159.508 132.904 161.078 131.217 162.673C130.12 163.715 129.078 164.813 127.991 165.87C127.635 166.21 127.259 166.53 126.847 166.804C126.187 167.247 125.425 167.114 124.932 166.51C124.612 166.118 124.383 165.707 124.403 165.173C124.424 164.777 124.434 164.365 124.373 163.964C124.241 163.126 124.088 162.292 123.9 161.469C123.799 161.027 123.458 160.819 123.001 160.824C122.864 160.824 122.732 160.819 122.594 160.824C122.01 160.854 121.792 160.992 121.634 161.561C121.395 162.465 121.136 163.37 121.172 164.325C121.187 164.681 121.172 165.041 121.136 165.397C121.08 166.068 120.73 166.596 120.15 166.901C119.535 167.221 118.936 167.043 118.423 166.591C118.026 166.235 117.615 165.88 117.229 165.514C116.36 164.681 115.506 163.827 114.637 163.004C114.058 162.455 113.443 161.942 112.864 161.383C111.995 160.544 111.177 159.66 110.298 158.837C109.581 158.166 108.845 157.506 107.92 157.125C106.573 156.576 105.542 157.003 105.013 158.355C104.536 159.584 104.353 160.86 104.551 162.176C105.044 165.356 106.492 168.07 108.55 170.509C109.932 172.135 111.644 173.339 113.428 174.452C114.012 174.823 114.637 175.183 115.272 175.275C115.821 174.563 116.228 173.837 116.822 173.329C119.104 171.388 121.771 170.62 124.703 171.286C127.025 171.82 129.068 172.912 130.16 175.28H130.165ZM146.928 111.171C146.567 111.237 146.43 111.227 146.329 111.288C145.531 111.694 144.713 112.075 143.956 112.538C139.997 114.946 136.766 118.122 134.058 121.862C131.857 124.905 130.196 128.183 129.622 131.948C129.454 133.025 129.418 134.082 129.678 135.139C129.901 136.048 130.475 136.389 131.38 136.145C131.634 136.074 131.893 135.962 132.111 135.82C132.747 135.398 133.407 135.012 133.971 134.519C135.008 133.609 136.024 132.664 136.974 131.663C139.002 129.524 141.024 127.375 142.97 125.159C144.916 122.939 146.928 120.795 149.266 118.976C152.02 116.821 154.972 115.134 158.554 114.85C158.966 114.814 159.321 114.677 159.641 114.392C161.024 113.168 162.233 111.796 163.341 110.333C163.483 110.139 163.513 109.86 163.63 109.55C162.639 109.469 161.755 109.464 160.881 109.616C158.544 110.012 156.201 110.383 153.986 111.273C153.813 111.344 153.595 111.323 153.249 111.359C153.458 111.034 153.559 110.836 153.691 110.663C154.423 109.642 155.165 108.635 155.892 107.609C156.222 107.131 156.522 106.633 156.801 106.125C156.867 106.003 156.806 105.805 156.806 105.516C156.171 105.775 155.77 106.125 155.383 106.486C153.63 108.087 151.867 109.667 150.155 111.303C148.859 112.538 147.589 113.798 146.395 115.124C144.774 116.918 143.234 118.772 141.893 120.79C141.522 121.349 141.09 121.867 140.663 122.38C140.47 122.619 140.241 122.853 139.977 123C139.82 123.096 139.545 123.081 139.357 123.015C138.981 122.878 138.864 122.522 139.088 122.131C139.545 121.313 140.023 120.505 140.521 119.707C141.944 117.436 143.371 115.165 145.16 113.137C145.688 112.538 146.232 111.938 146.933 111.146V111.161L146.928 111.171ZM81.9244 109.509C82.0819 109.885 82.1479 110.195 82.3207 110.419C83.4081 111.842 84.5869 113.188 85.9385 114.377C86.2993 114.697 86.7007 114.819 87.1529 114.86C87.6864 114.911 88.2301 114.941 88.7535 115.063C91.4872 115.734 93.9109 117.045 96.1162 118.783C98.1995 120.419 100.095 122.243 101.822 124.245C102.61 125.154 103.413 126.054 104.241 126.938C106.101 128.93 107.981 130.896 109.856 132.878C110.902 133.99 112.041 134.996 113.372 135.759C113.748 135.977 114.18 136.14 114.617 136.216C115.201 136.318 115.674 135.997 115.847 135.418C115.979 134.991 116.035 134.544 116.08 134.102C116.182 133.025 116.024 131.963 115.77 130.911C115.43 129.524 115.105 128.132 114.485 126.831C112.747 123.193 110.399 120.007 107.549 117.182C105.145 114.804 102.483 112.777 99.4037 111.349C99.236 111.268 99.048 111.064 98.8702 111.344C99.8305 112.482 100.832 113.564 101.726 114.728C103.387 116.897 104.8 119.235 106.213 121.572C106.35 121.806 106.487 122.034 106.589 122.283C106.705 122.558 106.624 122.812 106.38 122.995C106.141 123.168 105.872 123.229 105.633 123.046C105.389 122.858 105.151 122.649 104.963 122.41C104.353 121.638 103.789 120.835 103.184 120.053C102.026 118.579 100.903 117.06 99.673 115.647C97.4068 113.041 94.8459 110.729 92.3307 108.381C91.6091 107.711 90.8775 107.05 90.1305 106.415C89.7698 106.11 89.4293 105.744 88.8196 105.592C88.8196 105.846 88.7637 106.039 88.8246 106.156C89.1346 106.7 89.4547 107.243 89.8155 107.746C90.5319 108.773 91.284 109.779 92.0055 110.8C92.1122 110.952 92.3307 111.11 92.1223 111.42C88.8653 110.343 85.5625 109.479 81.9447 109.525H81.9294L81.9244 109.509ZM147.253 189.639C147.35 189.024 147.035 188.801 146.781 188.567C144.855 186.753 142.772 185.132 140.501 183.77C137.015 181.687 133.245 180.336 129.302 179.401C125.409 178.481 121.517 178.313 117.589 179.126C113.89 179.893 110.333 181.027 106.954 182.744C104.668 183.903 102.579 185.361 100.603 186.977C99.8407 187.597 99.1547 188.308 98.4535 188.994C98.2859 189.151 98.2198 189.375 98.5399 189.578C98.8651 189.405 99.2106 189.217 99.5612 189.019C102.142 187.566 104.836 186.377 107.681 185.539C110.725 184.639 113.814 183.918 116.964 183.46C118.601 183.222 120.247 183.049 121.898 182.927C123.6 182.795 125.298 183.034 126.985 183.237C130.14 183.613 133.25 184.233 136.319 185.066C139.921 186.037 143.356 187.393 146.573 189.319C146.755 189.426 146.964 189.502 147.269 189.629H147.264L147.253 189.639ZM201.556 122.487C201.455 122.492 201.363 122.502 201.262 122.507C201.231 123.122 201.175 123.742 201.175 124.362C201.155 127.146 200.906 129.895 200.139 132.588C199.57 134.615 198.929 136.612 198.005 138.508C196.668 141.241 195.118 143.838 193.157 146.2C192.354 147.171 191.47 148.045 190.616 148.954C188.772 150.921 186.77 152.689 184.504 154.157C183.975 154.498 183.457 154.838 182.939 155.199C182.817 155.285 182.756 155.453 182.664 155.59C183.112 155.885 183.518 155.763 183.909 155.722C184.265 155.687 184.611 155.585 184.966 155.519C185.357 155.438 185.754 155.367 186.145 155.28C186.491 155.199 186.831 155.092 187.182 154.996C187.573 154.889 187.964 154.793 188.345 154.671C188.726 154.549 189.107 154.401 189.473 154.244C189.798 154.107 190.119 153.939 190.434 153.766C190.789 153.573 191.135 153.375 191.475 153.151C191.77 152.958 192.039 152.72 192.344 152.521C192.654 152.318 192.913 151.988 193.533 151.922C193.157 152.532 192.918 152.999 192.608 153.426C190.591 156.195 188.599 159.005 185.759 161.169C185.967 161.185 186.064 161.22 186.12 161.19C188.802 159.808 191.236 158.08 193.274 155.829C195.479 153.39 197.212 150.641 198.63 147.669C200.383 144 201.485 140.159 202.08 136.15C202.349 134.326 202.339 132.497 202.44 130.667C202.578 128.101 202.273 125.576 201.79 123.071C201.754 122.868 201.648 122.68 201.572 122.492H201.556V122.487ZM124.998 119.037C125.526 119.357 125.902 119.23 126.222 118.955C126.456 118.752 126.644 118.493 126.837 118.254C127.95 116.923 128.971 115.5 130.201 114.276C131.288 113.203 132.147 111.969 133.194 110.876C134.677 109.337 135.963 107.614 137.431 106.049C138.681 104.718 139.84 103.295 141.253 102.121C141.664 101.781 142.05 101.405 142.416 101.024C142.685 100.739 143.051 100.511 143.046 100.038C142.726 99.5961 142.315 99.6317 141.852 99.779C139.235 100.582 136.781 101.695 134.525 103.275C133.092 104.271 131.741 105.353 130.526 106.603C129.332 107.833 128.372 109.199 127.604 110.739C126.908 112.152 126.37 113.61 125.851 115.078C125.409 116.338 125.104 117.644 124.993 119.026H124.998V119.037ZM120.46 119.143C120.511 119.021 120.567 118.94 120.567 118.859C120.572 118.676 120.567 118.498 120.547 118.325C120.15 116.018 119.388 113.823 118.443 111.689C118.118 110.958 117.757 110.226 117.351 109.54C115.968 107.182 113.987 105.378 111.822 103.768C110.572 102.833 109.216 102.04 107.813 101.359C106.446 100.694 105.029 100.135 103.55 99.7435C103.347 99.6926 103.108 99.7282 102.9 99.7739C102.61 99.84 102.452 100.18 102.625 100.389C102.879 100.699 103.159 100.983 103.448 101.258C104.16 101.939 104.917 102.569 105.582 103.285C106.985 104.789 108.326 106.344 109.713 107.863C111.218 109.504 112.732 111.146 114.078 112.929C114.185 113.071 114.302 113.214 114.434 113.325C115.679 114.484 116.756 115.795 117.808 117.131C118.25 117.695 118.697 118.254 119.175 118.788C119.52 119.179 119.942 119.382 120.455 119.148H120.46V119.143ZM169.814 118.036C170.119 118.346 170.342 118.605 170.602 118.833C172.416 120.398 173.93 122.192 174.905 124.402C175.449 125.627 176.064 126.841 176.206 128.188C176.409 130.113 176.328 132.024 175.525 133.838C175.424 134.072 175.403 134.336 175.337 134.656C176.328 135.149 177.268 135.647 178.239 136.089C179.189 136.521 179.976 137.313 181.059 137.471C181.343 136.424 181.419 134.844 181.267 133.584C180.876 130.444 179.982 127.492 178.279 124.788C176.521 121.989 174.143 119.895 171.282 118.305C170.978 118.132 170.622 118.046 170.287 117.944C170.185 117.914 170.048 117.99 169.809 118.041L169.814 118.036ZM64.5111 137.598C66.4572 136.587 68.3474 135.606 70.2782 134.605C70.2122 134.366 70.1919 134.143 70.0953 133.955C69.699 133.188 69.5313 132.349 69.4094 131.516C69.2061 130.134 69.1248 128.736 69.5415 127.39C70.263 125.022 71.2335 122.766 72.9205 120.901C73.581 120.17 74.3178 119.514 75.0038 118.818C75.2426 118.579 75.6338 118.442 75.6389 117.985C75.1613 117.832 74.7548 118.041 74.3737 118.254C72.2751 119.402 70.3799 120.82 68.8453 122.659C66.0303 126.033 64.5771 129.961 64.257 134.316C64.1757 135.378 64.1554 136.45 64.5111 137.598ZM152.35 191.265C152.431 191.402 152.457 191.504 152.518 191.539C154.718 192.942 157.172 193.313 159.702 193.211C161.633 193.13 163.457 192.51 165.261 191.829C166.333 191.423 167.258 190.803 168.097 190.091C170.505 188.059 172.553 185.716 173.92 182.835C173.991 182.678 174.092 182.531 173.889 182.373C173.782 182.429 173.645 182.47 173.544 182.556C172.207 183.679 170.81 184.705 169.311 185.6C167.319 186.794 165.322 187.978 163.112 188.725C162.228 189.019 161.318 189.253 160.419 189.497C158.229 190.112 156.013 190.66 153.768 191.047C153.305 191.128 152.833 191.189 152.35 191.27V191.265ZM71.2538 181.931C72.58 184.837 74.2975 187.119 76.4214 189.131C78.0423 190.666 79.8665 191.814 82.0158 192.424C82.1479 192.459 82.275 192.495 82.3969 192.53C85.344 193.521 88.281 193.399 91.2179 192.479C92.0512 192.22 92.6914 191.809 93.2097 191.219C90.786 190.95 88.4486 190.33 86.1113 189.751C85.0696 189.497 84.0483 189.182 83.0168 188.897C81.3146 188.435 79.7903 187.586 78.271 186.748C76.5129 185.772 74.7853 184.746 73.2203 183.466C72.641 182.993 72.0465 182.546 71.2589 181.931H71.2538ZM123.26 150.352C121.451 150.408 120.171 150.57 118.895 150.865C118.021 151.068 117.533 151.703 117.137 152.404C116.807 152.999 117.03 153.792 117.584 154.208C118.128 154.615 118.722 154.909 119.444 154.818C121.664 154.528 123.895 154.528 126.116 154.818C126.161 154.818 126.202 154.833 126.248 154.833C127.015 154.869 127.645 154.544 128.179 154.051C128.656 153.609 128.758 152.872 128.412 152.323C127.955 151.592 127.406 150.946 126.466 150.819C125.231 150.646 123.992 150.463 123.255 150.357H123.26V150.352ZM116.639 145.367C116.593 145.946 116.593 146.424 117 146.815C117.447 147.247 117.976 147.43 118.585 147.41C118.855 147.405 119.129 147.389 119.383 147.313C121.634 146.668 123.885 146.653 126.141 147.298C126.436 147.384 126.756 147.384 127.066 147.4C127.681 147.42 128.204 147.206 128.631 146.754C129.012 146.348 128.971 145.865 128.92 145.392C126.466 143.228 119.551 143.086 116.644 145.362L116.639 145.367ZM122.803 140.743C124.337 140.738 125.16 140.23 125.648 138.965C125.745 138.721 125.785 138.441 125.836 138.182C126.024 137.161 125.455 136.17 124.449 135.916C123.351 135.632 122.234 135.647 121.126 135.916C120.272 136.119 119.861 136.77 119.729 137.552C119.469 139.072 120.724 140.621 122.269 140.748C122.452 140.764 122.625 140.748 122.803 140.748V140.743Z" fill="#0084A3"/>
<path d="M122.763 256.659C122.474 256.466 122.392 256.263 122.357 256.044C122.103 254.667 121.711 253.3 121.64 251.908C121.574 250.673 121.3 249.449 121.076 248.219C120.939 247.467 120.858 246.705 120.716 245.953C120.578 245.221 120.411 244.49 120.233 243.768C120.014 242.914 119.801 242.061 119.532 241.212C119.394 240.791 119.151 240.389 118.917 239.983C118.836 239.845 118.683 239.724 118.536 239.622C117.814 239.109 116.93 239.149 116.285 239.703C115.838 240.084 115.65 240.542 115.538 241.019C115.37 241.756 115.401 242.493 115.573 243.224C115.97 244.916 116.483 246.598 117.316 248.214C117.387 248.356 117.453 248.504 117.484 248.656C117.53 248.946 117.113 249.154 116.737 249.027C116.518 248.946 116.325 248.839 116.153 248.717C114.633 247.625 113.185 246.497 112.027 245.196C111.615 244.734 111.209 244.271 110.797 243.814C110.213 243.163 109.857 242.437 109.552 241.715C109.09 240.623 109.181 239.566 110.197 238.611C110.269 238.54 110.33 238.458 110.416 238.402C111.666 237.564 112.86 236.665 114.466 236.131C115.274 235.862 116.071 235.562 116.961 235.415C117.56 235.313 118.139 235.125 118.749 235.059C119.735 234.962 120.731 234.907 121.722 234.901C122.997 234.886 124.267 234.932 125.543 234.952C126.417 234.968 127.265 235.095 128.099 235.293C128.896 235.481 129.689 235.648 130.456 235.908C131.838 236.38 133.119 236.934 134.16 237.732C134.369 237.889 134.582 238.052 134.811 238.194C135.614 238.692 136.076 239.317 136.223 240.049C136.33 240.592 136.259 241.136 136.04 241.665C135.583 242.808 134.826 243.849 133.906 244.835C132.921 245.892 131.843 246.903 130.624 247.828C130.162 248.184 129.684 248.514 129.191 248.854C129.059 248.941 128.896 249.012 128.718 249.047C128.398 249.119 128.053 248.941 128.088 248.717C128.124 248.509 128.221 248.29 128.312 248.087C128.927 246.807 129.404 245.511 129.745 244.18C129.913 243.514 130.085 242.853 130.106 242.183C130.121 241.553 130.106 240.918 129.76 240.323C129.623 240.084 129.435 239.851 129.201 239.652C128.642 239.175 127.814 239.139 127.138 239.546C126.879 239.703 126.666 239.891 126.554 240.125C126.412 240.415 126.224 240.689 126.122 240.984C125.919 241.532 125.741 242.081 125.594 242.635C125.36 243.534 125.151 244.429 124.958 245.328C124.872 245.709 124.852 246.1 124.791 246.492C124.659 247.264 124.521 248.041 124.384 248.814C124.267 249.459 124.1 250.099 124.059 250.755C123.937 252.447 123.627 254.129 123.276 255.805C123.221 256.1 123.195 256.42 122.794 256.674H122.763V256.659Z" fill="#0084A3"/>
<path d="M167.407 130.352C167.356 130.885 167.361 131.429 167.254 131.952C166.863 133.782 165.781 135.108 164.307 136.241C162.63 137.542 160.771 137.587 158.84 137.298C157.991 137.166 157.29 136.637 156.589 136.16C154.887 135.016 154.307 133.258 153.972 131.378C153.921 131.083 153.937 130.743 154.028 130.453C154.45 129.102 154.866 127.776 155.791 126.607C157.158 124.869 158.947 124.097 161.01 124.092C163.123 124.092 164.988 124.813 166.238 126.739C166.97 127.867 167.503 128.99 167.417 130.357H167.402L167.407 130.352Z" fill="#0084A3"/>
<path d="M78.1763 130.114C78.1255 129.123 78.5167 128.086 79.1366 127.045C79.9191 125.744 81.0269 124.916 82.3835 124.418C82.9984 124.194 83.6945 124.047 84.3347 124.072C85.3916 124.118 86.4841 124.128 87.4241 124.768C87.7188 124.961 88.0592 125.088 88.3794 125.251C88.5724 125.353 88.8062 125.439 88.9434 125.607C89.6903 126.491 90.4931 127.334 90.9352 128.437C91.1283 128.93 91.2807 129.448 91.4433 129.956C91.7279 130.891 91.6669 131.821 91.3417 132.72C91.0978 133.391 90.8082 134.046 90.4728 134.682C90.0257 135.55 89.1924 136.043 88.42 136.557C86.5908 137.766 84.6142 137.593 82.6173 137.065C81.6468 136.45 80.5645 135.977 79.8887 134.966C79.787 134.814 79.7057 134.656 79.5838 134.524C78.4558 133.335 78.2169 131.862 78.1814 130.103V130.119L78.1763 130.114Z" fill="#0084A3"/>
<path d="M110.649 162.79C112.631 162.942 114.145 163.781 114.587 166.088C114.739 166.891 114.572 167.704 113.936 168.303C113.525 168.699 113.103 169.152 112.605 169.39C111.442 169.939 110.314 169.624 109.348 168.893C108.789 168.471 108.372 167.871 108.052 167.221C107.529 166.174 107.61 164.929 108.576 163.893C109.099 163.329 110.075 162.815 110.659 162.8H110.654L110.649 162.79Z" fill="#0084A3"/>
<path d="M137.835 166.184C137.799 166.316 137.738 166.718 137.581 167.073C137.001 168.349 136.163 169.314 134.694 169.583C133.805 169.751 133.018 169.583 132.337 168.974C132.235 168.887 132.154 168.77 132.052 168.689C130.477 167.592 130.894 165.376 131.763 164.274C132.581 163.247 133.688 162.841 134.923 162.82C135.416 162.815 135.96 163.09 136.392 163.369C137.291 163.953 137.875 164.772 137.84 166.174H137.835V166.184Z" fill="#0084A3"/>
</svg>
