<svg width="371" height="306" viewBox="0 0 371 306" fill="none" xmlns="http://www.w3.org/2000/svg">
<path d="M292.513 93.1602H261.812C257.897 93.1602 254.723 96.3342 254.723 100.249V128.594C254.723 132.509 257.897 135.683 261.812 135.683H292.513C296.429 135.683 299.603 132.509 299.603 128.594V100.249C299.603 96.3342 296.429 93.1602 292.513 93.1602Z" fill="#0084A3"/>
<path d="M355.234 93.1602H324.533C320.617 93.1602 317.443 96.3342 317.443 100.249V128.594C317.443 132.509 320.617 135.683 324.533 135.683H355.234C359.149 135.683 362.323 132.509 362.323 128.594V100.249C362.323 96.3342 359.149 93.1602 355.234 93.1602Z" fill="#0084A3"/>
<path d="M318.788 212.125H5.98617C2.6801 212.125 0 214.805 0 218.111V299.038C0 302.344 2.6801 305.024 5.98617 305.024H318.788C322.094 305.024 324.774 302.344 324.774 299.038V218.111C324.774 214.805 322.094 212.125 318.788 212.125Z" fill="#6AD6EF"/>
<path d="M365.162 118.227H120.48C117.567 118.227 115.205 120.588 115.205 123.501V204.676C115.205 207.589 117.567 209.95 120.48 209.95H365.162C368.075 209.95 370.436 207.589 370.436 204.676V123.501C370.436 120.588 368.075 118.227 365.162 118.227Z" fill="#0084A3"/>
<path d="M238.179 23.5H58.3985C55.8388 23.5 53.7637 25.5751 53.7637 28.1348V114.512C53.7637 117.072 55.8388 119.147 58.3985 119.147H238.179C240.739 119.147 242.814 117.072 242.814 114.512V28.1348C242.814 25.5751 240.739 23.5 238.179 23.5Z" fill="white"/>
<path d="M101.679 188.689H70.9781C67.0627 188.689 63.8887 191.863 63.8887 195.779V224.123C63.8887 228.038 67.0627 231.212 70.9781 231.212H101.679C105.595 231.212 108.769 228.038 108.769 224.123V195.779C108.769 191.863 105.595 188.689 101.679 188.689Z" fill="#6AD6EF"/>
<path d="M46.6753 188.689H15.9742C12.0588 188.689 8.88477 191.863 8.88477 195.779V224.123C8.88477 228.038 12.0588 231.212 15.9742 231.212H46.6753C50.5907 231.212 53.7647 228.038 53.7647 224.123V195.779C53.7647 191.863 50.5907 188.689 46.6753 188.689Z" fill="#6AD6EF"/>
<path d="M106.523 0H75.8218C71.9065 0 68.7324 3.17399 68.7324 7.08931V35.4335C68.7324 39.3488 71.9065 42.5228 75.8218 42.5228H106.523C110.438 42.5228 113.612 39.3488 113.612 35.4335V7.08931C113.612 3.17399 110.438 0 106.523 0Z" fill="white"/>
<path d="M164.748 0H134.046C130.131 0 126.957 3.17398 126.957 7.08931V35.4335C126.957 39.3488 130.131 42.5228 134.046 42.5228H164.748C168.663 42.5228 171.837 39.3488 171.837 35.4335V7.08931C171.837 3.17398 168.663 0 164.748 0Z" fill="white"/>
<path d="M224.843 0H194.142C190.227 0 187.053 3.17399 187.053 7.08931V35.4335C187.053 39.3488 190.227 42.5228 194.142 42.5228H224.843C228.759 42.5228 231.933 39.3488 231.933 35.4335V7.08931C231.933 3.17399 228.759 0 224.843 0Z" fill="white"/>
</svg>
