<svg width="292" height="281" viewBox="0 0 292 281" fill="none" xmlns="http://www.w3.org/2000/svg">
<path d="M218.727 52.8125H31.246C13.9908 52.8125 0 66.8112 0 84.076V200.608C0 217.873 13.9908 231.872 31.246 231.872H77.6924L125.696 280.19L173.7 231.872H218.727C235.983 231.872 249.973 217.873 249.973 200.608V84.076C249.973 66.8112 235.983 52.8125 218.727 52.8125Z" fill="#6AD6EF"/>
<path d="M129.74 104.109L128.746 105.099C113.827 90.0996 89.5791 90.0444 74.5941 104.972C59.6035 119.899 59.5483 144.16 74.467 159.159L128.497 213.474L182.781 159.413L183.775 158.424C198.766 143.497 198.821 119.235 183.903 104.242C168.984 89.243 144.736 89.1878 129.745 104.115L129.74 104.109Z" fill="#0084A3"/>
<path d="M248.719 40.4497L250.127 16.7299C250.166 16.0501 250.453 15.4035 250.934 14.9172L264.317 1.25565C264.864 0.697473 265.814 1.11749 265.775 1.89673L264.356 27.2082C264.328 27.7221 264.759 28.1421 265.272 28.1035L290.089 26.1084C290.851 26.0476 291.299 26.9484 290.796 27.5177L278.291 41.66C277.755 42.2679 276.982 42.6161 276.17 42.6161H250.762C249.586 42.6161 248.652 41.6268 248.724 40.4497H248.719Z" fill="white" stroke="white" stroke-miterlimit="10"/>
<path d="M128.267 151.223C131.662 151.223 134.414 148.469 134.414 145.072C134.414 141.675 131.662 138.921 128.267 138.921C124.872 138.921 122.119 141.675 122.119 145.072C122.119 148.469 124.872 151.223 128.267 151.223Z" fill="white"/>
<path d="M130.221 147.028L133.513 144.232L142.466 136.622L155.617 125.442L171.751 111.725L189.371 96.7427L207.156 81.6222L223.787 67.4853L237.762 55.6089L247.869 47.0151C249.46 45.6667 251.073 44.3348 252.642 42.9587C252.708 42.8979 252.78 42.8426 252.846 42.7873C253.951 41.8478 253.884 39.8307 252.846 38.8801C251.67 37.8024 250.117 37.8798 248.941 38.8801L245.649 41.6765L236.696 49.2865L223.544 60.4667L207.41 74.1835L189.791 89.1659L172.005 104.286L155.374 118.423L141.4 130.3L131.292 138.893C129.701 140.242 128.089 141.574 126.52 142.95C126.454 143.011 126.382 143.066 126.316 143.121C125.211 144.061 125.277 146.078 126.316 147.028C127.492 148.106 129.044 148.029 130.221 147.028Z" fill="white"/>
</svg>
