<svg width="312" height="482" viewBox="0 0 312 482" fill="none" xmlns="http://www.w3.org/2000/svg">
<path d="M166.674 42.1961C171.381 37.8252 174.382 31.2184 174.382 23.813C174.382 10.6667 164.9 0 153.208 0C141.516 0 132.034 10.6583 132.034 23.813C132.034 31.1511 134.985 37.7075 139.633 42.0784C105.187 45.4827 79.0371 62.193 79.0371 82.2908C79.0371 104.851 111.979 123.134 152.611 123.134C193.244 123.134 226.186 104.843 226.186 82.2908C226.186 62.4032 200.574 45.8357 166.665 42.1961H166.674Z" fill="white"/>
<path d="M233.818 81.7939L190.865 257.799L189.672 262.716C189.394 263.977 115.736 263.38 115.559 262.716L70.7323 80.6591C70.4465 79.5076 70.497 78.3896 70.7575 77.465C71.2787 75.6242 72.6404 74.6155 73.8592 75.8932C76.6667 78.9024 79.3396 81.4577 81.8613 83.5759C115.038 111.625 124.856 69.0342 124.856 69.0342C154.721 123.259 179.736 69.0342 179.736 69.0342C197.262 98.6555 214.3 92.6875 225.101 83.1808C227.245 81.3148 229.144 79.2974 230.75 77.3893C231.91 76.0024 233.288 76.9859 233.784 78.8435C234.019 79.6925 234.061 80.7264 233.818 81.7939Z" fill="#6AD6EF"/>
<path d="M256.876 438.663C256.876 445.471 210.645 451.011 153.622 451.011C96.598 451.011 50.3672 445.48 50.3672 438.663C50.3672 436.948 53.2839 435.309 58.5626 433.838C59.3107 432.897 60.0588 431.972 60.7733 431.03V431.014C61.8072 429.635 62.8075 428.24 63.7657 426.811C64.6819 425.466 65.5645 424.096 66.4135 422.709C68.9688 418.548 71.2551 414.253 73.2724 409.815C107.097 335.501 110.484 228.103 99.7585 201.045C104.617 202.768 126.505 201.65 133.599 201.65H170.887C178.368 201.65 205.484 203.39 210.401 201.524C199.827 228.153 200.062 335.266 233.962 409.815C235.98 414.253 238.258 418.548 240.813 422.709C241.864 424.424 242.965 426.105 244.125 427.761C244.881 428.853 245.663 429.946 246.47 431.022C246.529 431.064 246.562 431.115 246.587 431.173C247.277 432.064 247.958 432.947 248.672 433.838C253.951 435.317 256.868 436.956 256.868 438.663H256.876Z" fill="#0084A3"/>
<path d="M301.769 432.712H9.95224C4.45577 432.712 0 437.168 0 442.664V471.277C0 476.773 4.45577 481.229 9.95224 481.229H301.769C307.266 481.229 311.722 476.773 311.722 471.277V442.664C311.722 437.168 307.266 432.712 301.769 432.712Z" fill="#6AD6EF"/>
<path d="M225.446 179.418H79.0707C74.3588 179.418 70.5391 183.238 70.5391 187.95V209.291C70.5391 214.003 74.3588 217.823 79.0707 217.823H225.446C230.158 217.823 233.977 214.003 233.977 209.291V187.95C233.977 183.238 230.158 179.418 225.446 179.418Z" fill="white"/>
</svg>
