<svg width="140" height="27" viewBox="0 0 140 27" fill="none" xmlns="http://www.w3.org/2000/svg">
<path d="M18.2607 23.1317C15.926 25.3907 13.3232 26.0015 10.3365 26.0015C7.15854 26.0015 4.74696 24.9977 2.75696 23.1317C-0.113704 20.4407 0.000622253 16.8557 0.000622253 13.0175C0.000622253 9.17924 -0.113704 5.59419 2.75696 2.90496C4.74875 1.03897 7.04421 0.0351562 10.3365 0.0351562C17.3407 0.0351562 20.3275 4.30357 20.9778 8.49941H14.2414C13.7055 6.5626 12.6337 5.6296 10.3365 5.6296C9.11102 5.6296 8.19283 6.13239 7.69444 6.74141C7.08172 7.49382 6.69944 8.35601 6.69944 13.0175C6.69944 17.6789 7.08172 18.5765 7.69444 19.3289C8.19283 19.9379 9.11102 20.4053 10.3365 20.4053C11.753 20.4053 12.7105 20.0105 13.3215 19.4015C14.0878 18.6845 14.354 17.6435 14.354 16.6769V16.3175H10.0649L12.0889 11.0806H21.0153V14.6321C21.0153 18.7571 20.3257 21.1595 18.2589 23.1317H18.2607Z" fill="#414141"/>
<path d="M85.6973 25.9997V0.0351562H92.3961V26.0015H85.6973V25.9997Z" fill="#414141"/>
<path d="M38.4397 0.0351562H30.937L20.9941 25.9997H28.6487L38.4397 0.0351562Z" fill="#414141"/>
<path d="M53.264 14.6766C55.1218 13.5099 56.8421 11.4332 56.8421 8.36334C56.8421 4.08961 53.5838 0 47.5281 0L40.5273 0.0336375L42.7103 5.7343H47.2226C49.0625 5.7343 50.1361 7.01253 50.1361 8.36334C50.1361 9.71415 49.0625 10.9924 47.2226 10.9924H44.7235L50.3094 25.5822L50.5166 26H58.457L53.2623 14.6766H53.264Z" fill="#414141"/>
<path d="M114.753 5.72343V0.0351562H99.5365H96.2246V25.9997H114.753V20.3115H102.923V15.7527H113.036L113.031 10.0644H102.923V5.72343H114.753Z" fill="#414141"/>
<path d="M134.105 15.1685C136.248 14.147 138.546 11.9233 138.546 8.3861C138.546 4.11945 135.291 0.0351562 129.244 0.0351562H118.449V26.0015H125.148V16.3369H127.406L132.229 26.0015H140L134.105 15.1703V15.1685ZM128.937 11.0116H125.148V5.76061H128.937C130.775 5.76061 131.847 7.03706 131.847 8.3861C131.847 9.73514 130.775 11.0116 128.937 11.0116Z" fill="#414141"/>
<path d="M66.4414 0.0354079L75.1696 13.0903V0.0354079H78.5333L81.8684 0V26H76.0109L67.2828 12.9451V26H60.584V0.0354079H66.4414Z" fill="#414141"/>
</svg>
