<?xml version="1.0" encoding="UTF-8"?>
<svg id="Layer_2" data-name="Layer 2" xmlns="http://www.w3.org/2000/svg" viewBox="0 0 186.75 35.03">
  <defs>
    <style>
      .cls-1 {
        fill: #1a1a1a;
      }
    </style>
  </defs>
  <g id="Capa_1" data-name="Capa 1">
    <g>
      <g>
        <path class="cls-1" d="m149.19,22.68c.55-1.33,1.59-3.18,3.54-4.6,2.84-2.04,4.31-1.57,4.7-1.39.35.18.57.47.57.79.08.4.25.63.51.74.55.21,1.22-.28,1.24-.29.89-.43,1.62-.48,2.25-.13,1.12.63,1.32,2.46,1.32,2.46,0,0,0,.53.5.88.56.37,1.88.54,4.92-.85.03-.02,3.02-1.53,4.21-2.28,1.35-.82,2.6-1.51,3.41-.47,1.06,1.34-.87,3-.9,3.01-.02.02-.74.47-.32,2.06.47,1.83-.32,3.04-.32,3.04l-.05.07.06.04s1,.74,2.25.29c3.43-1.25,7.01-.2,7.03-.18h.01s1.8.41,2.42,1.54c.23.48.26,1,.02,1.56-.26.66-.65,1.1-1.18,1.3-1,.36-2.16-.24-2.16-.24-.07-.05-4.97-1.97-9.62-.12-4.34,1.71-5.08,1.62-5.1,1.63-.18,0-3.73.25-4.01-2.9-.07-.86.1-1.49.48-1.91.47-.49,1.09-.46,1.09-.46,1.19-.14,1.56.69,1.56.71,0,0,.44.84,1.51.7,1.11-.17,1.84-1.25,2.46-3.59.17-.71.14-1.14-.12-1.32-.37-.26-1.04.18-1.07.19-4.8,2.84-7.47,1.33-7.5,1.32l-.09-.07-.02.12c-.64,2.1-2.94,4.42-5.62,5.64-1.99.93-3.91,1.03-5.37.39-1.17-.55-2.01-1.42-2.54-2.58l-.03-.08-.09.05c-.81.54-7.95,5.24-10.76,2.97-.66-.53-.96-1.17-1-1.91-.04-2.28,2.84-4.82,2.85-4.86.05,0,.66-.52.68-1.05,0-.2-.05-.37-.2-.52-.7-.68-2.76.04-4.51,1.56-1.83,1.55-5.21,5.23-6.02,6.21-.51.57-1.45,1.2-2.3,1.22-.37.01-.7-.1-.95-.37-.78-.8-1.04-2.37.83-4.21l-.12-.13c-.07.05-6.18,5.08-10.27,4.16-1.26-.28-2.23-1.11-2.85-2.44l-.05-.13-.1.1s-2,2.4-5.65,2.42c-.1,0-2.51.08-2.62-1.94-.03-.61.12-1.08.44-1.43.58-.6,1.52-.57,1.53-.57.1.04,2.82.71,6.45-3.08,3.62-3.76,4.48-5.11,4.48-5.11,0,0,.57-.82,1.38-.94.45-.05.88.09,1.31.43,1.09.89.12,2.23.08,2.31l-.6.92-.18.29-.33.49-.56.87-.3.48c-.4.65-.81,1.32-1.13,2.01-.23.51-.48,1.61.17,1.99.77.45,1.98-.21,2.71-.58l.16-.09c2.58-1.35,4.88-3.16,7.1-4.93.92-.73,1.74-1.56,2.52-2.39l.42-.42c.47-.47,1.2-1.11,2.04-1.22.44-.05.88.1,1.15.39.17.18.27.41.26.66,0,.07,0,.17-.03.26-.08.34-.25.69-.39.96l-.11.19c-.21.43-.52.97-.84,1.26h0s.1.12.1.12h0s5.31-4.33,8.91-3.93c.9.08,1.62.49,2.15,1.13,2.07,2.65-1.42,6.19-1.47,6.23-.05.05-.82.95-.4,1.63.08.14.27.23.53.22,1.19,0,3.69-1.33,5.55-4.29m4.27-.83c-1.42,1.24-1.74,3.19-.72,4.38,1,1.17,3.22,1.08,4.68-.16.09-.08,2.06-1.92,1.73-2.87-.09-.27-.37-.45-.82-.52,0,0-.54,0-.78-.3-.11-.13-.15-.26-.13-.44.1-.89-.58-1.03-.58-1.03-1.13-.33-2.54.22-3.38.92"/>
        <path class="cls-1" d="m121.11,14.48c-.01-1.26,1-2.28,2.29-2.3,1.26,0,2.29,1,2.31,2.28,0,1.26-1.02,2.29-2.28,2.31-1.28.01-2.31-1.01-2.31-2.29"/>
        <path class="cls-1" d="m95.31,13.11c-.05-5.76,4.62-10.46,10.39-10.51,5.73-.04,10.47,4.61,10.51,10.37.03,5.77-4.63,10.48-10.37,10.53h-.06c-.92-.03-2.35-.34-3.64-1.18l-.09-.05-1.91,4.47.08.04c.51.16.95.38,1.36.62.44.26.76.67.89,1.17.14.49.06,1.01-.2,1.45-.26.44-.67.74-1.16.88-.5.14-1.01.05-1.44-.21-.52-.29-1.21-.49-2.06-.6l-.6-.05c-1.57-.08-3.1.15-3.71.29-1.03.24-2.04-.42-2.26-1.44-.23-1.03.41-2.06,1.42-2.29.29-.06,1.83-.38,3.72-.4h.07l6.64-15.58c.41-.97,1.54-1.42,2.5-1.01.48.19.83.56,1.03,1.04.19.46.18,1,0,1.46l-2.78,6.49.04.04c.79.89,1.96,1.02,2.19,1.03,3.63-.05,6.59-3.04,6.55-6.68-.02-3.66-3.03-6.59-6.67-6.56-3.67.02-6.62,2.99-6.59,6.65,0,1.06-.85,1.92-1.89,1.92-1.05.02-1.92-.84-1.93-1.9"/>
        <path class="cls-1" d="m.91,30.44c-.81-.41-1.15-1.53-.72-2.51l2.7-6.15-.04-.04c-1.73-1.97-2.6-4.63-2.44-7.49C.72,8.5,5.16,3.78,10.3,3.75c3.11-.02,6.04,1.22,8.23,3.54,2.55,2.67,3.9,6.52,3.68,10.57-.07,1.24-.29,2.46-.61,3.65l-.04.16.14-.06c1.6-.54,3.12-1.27,4.54-2.13,2.63-2.04,4.57-2.27,5.5-1.81.35.16.56.45.56.73.1.39.25.61.51.73.52.21,1.23-.27,1.26-.29.87-.43,1.61-.47,2.22-.13,1.14.62,1.34,2.46,1.34,2.46,0,0,0,.53.47.87.58.37,1.9.53,4.93-.85.04-.03,3.04-1.53,4.22-2.28,1.33-.82,2.59-1.5,3.41-.47,1.08,1.33-.86,2.99-.89,3.01-.04.02-.76.47-.34,2.06.47,1.82-.31,3.03-.34,3.05l-.04.06.06.03c.04.06,1.03.81,2.25.3,2.08-.84,3.69-.38,3.71-.38h0s1.49.34,2.06,1.37c.27.48.3,1.05.09,1.68-.24.7-.62,1.14-1.12,1.34-.89.34-1.91-.22-1.91-.22-.03-.03-2.39-1.51-6.29.07-4.32,1.74-5.05,1.63-5.09,1.62-.16.01-3.72.27-3.99-2.88-.08-.88.09-1.5.48-1.91.45-.49,1.06-.45,1.06-.45,1.19-.16,1.58.68,1.58.71,0,0,.44.83,1.5.69,1.11-.17,1.83-1.25,2.45-3.59.17-.71.15-1.14-.1-1.31-.38-.26-1.06.18-1.08.18-4.81,2.84-7.48,1.35-7.5,1.31l-.09-.06-.05.11c-.59,2.11-2.91,4.42-5.58,5.63-2.01.93-3.93,1.05-5.4.39-3.32-1.54-3.15-5.86-3.01-7.14v-.15s-.11.05-.11.05c-.92.38-1.86.71-2.83,1h-.03s-.05.08-.05.08c-.63,1.08-1.39,2.11-2.25,3-1.92,2.05-4.49,3.17-7.05,3.11-2.36-.07-4.55-1.14-6.13-3.02-.19-.22-.31-.48-.38-.78l-.05-.25-1,2.25c-.21.51-.62.91-1.1,1.07-.39.15-.82.13-1.2-.06m4.85-6.81l-.71,1.61.21-.09c.68-.37,1.44-.22,1.91.33,1.95,2.32,5.41,2.53,7.87.51l.19-.17h-.25c-3.12.12-6.44-.69-9.1-2.21l-.09-.06-.03.08m-1.96-9.42c-.05,1.26.18,2.48.72,3.53l.08.17,2.69-6.17c.24-.49.63-.89,1.1-1.06.41-.16.83-.13,1.18.05.84.41,1.17,1.54.76,2.52l-3.14,7.1.07.02c3.09,1.85,6.62,2.63,10.23,2.27h.04s.01-.06.01-.06c.73-1.46,1.18-3.08,1.27-4.71.16-2.96-.83-5.77-2.7-7.74-1.61-1.68-3.75-2.61-6.04-2.59-3.27.03-6.09,3.01-6.28,6.65m24.02,8.54c-1.44,1.24-1.77,3.19-.74,4.38.99,1.17,3.23,1.08,4.66-.16h.01c.08-.09,2.05-1.93,1.74-2.86-.11-.28-.37-.45-.83-.52,0,0-.55,0-.81-.3-.11-.13-.14-.27-.13-.44.13-.89-.54-1.03-.54-1.03-1.13-.34-2.55.21-3.38.92"/>
      </g>
      <path class="cls-1" d="m78.7.67c-9.27-2.64-18.95,2.76-21.63,12.07-2.68,9.3,2.66,18.99,11.93,21.63,9.27,2.64,18.95-2.76,21.63-12.07,2.68-9.3-2.66-18.99-11.93-21.63Zm-2.83,10.98l3.25-4.14c1.88-2.22,2.9.4,2.9.4l1.27,6.38c-.05,1.68-1.5,1.48-1.5,1.48l-1.64-.45-.39,1.77c-.49.84-1.49.56-1.49.56-1.38-.18-1.19-1.41-1.19-1.41l.3-1.41-1.33-.34c-2.08-.97-.16-2.85-.16-2.85Zm-11.95-.77l2.55-4.16c1.47-2.46,2.92-.2,2.92-.2l2.35,5.37c.5,1.55-1.16,1.63-1.16,1.63l-1.7-.05-.05,1.7c-.3.86-1.34.8-1.34.8-1.39.1-1.46-1.05-1.46-1.05l.04-1.35-1.18-.14c-2.24-.48-.97-2.56-.97-2.56Zm20.79,12.1c-.2.86-.93.88-.93.88l-.66-.05c-3.86,6.18-11.63,5.19-11.63,5.19-9.55-1.13-11-8.64-11-8.64-1.32-.11-.97-1.17-.97-1.17.34-.96,1.24-.76,1.24-.76l2,.2c1.43,0,1.52.92,1.52.92.04,1.05-.8,1.11-.8,1.11,2.48,5.52,8.11,5.47,8.11,5.47,6.52,0,8.31-3.03,8.31-3.03-.06,0-.1-.04-.12-.09-.18-.15-.47-.49-.33-1.03,0,0,.37-1.21,1.88-.75l1.94.44c1.63.15,1.46,1.32,1.46,1.32Z"/>
    </g>
  </g>
</svg>